<mxfile host="Electron" agent="Mozilla/5.0 (Windows NT 10.0; Win64; x64) AppleWebKit/537.36 (KHTML, like Gecko) draw.io/24.7.8 Chrome/128.0.6613.36 Electron/32.0.1 Safari/537.36" version="24.7.8">
  <diagram name="12_List_Common_Member" id="BGS3tdgWZ3wmx3Ol-Rfp">
    <mxGraphModel dx="2960" dy="1731" grid="1" gridSize="10" guides="1" tooltips="1" connect="1" arrows="1" fold="1" page="1" pageScale="1" pageWidth="850" pageHeight="1100" math="0" shadow="0">
      <root>
        <mxCell id="0" />
        <mxCell id="1" parent="0" />
        <mxCell id="bj1FN5D3CyfGF1BxI-4a-6" value="" style="curved=1;startArrow=none;endArrow=block;exitX=0.5;exitY=1;entryX=0.5;entryY=0;rounded=0;exitDx=0;exitDy=0;entryDx=0;entryDy=0;" edge="1" parent="1" source="bj1FN5D3CyfGF1BxI-4a-14" target="bj1FN5D3CyfGF1BxI-4a-17">
          <mxGeometry relative="1" as="geometry">
            <Array as="points" />
            <mxPoint x="871" y="533" as="sourcePoint" />
            <mxPoint x="871.5" y="583" as="targetPoint" />
          </mxGeometry>
        </mxCell>
        <mxCell id="bj1FN5D3CyfGF1BxI-4a-14" value="&lt;font style=&quot;font-size: 24px;&quot;&gt;Start&lt;/font&gt;" style="ellipse;whiteSpace=wrap;html=1;fillColor=#008a00;fontColor=#ffffff;strokeColor=#005700;" vertex="1" parent="1">
          <mxGeometry x="779.38" y="420" width="184.25" height="83" as="geometry" />
        </mxCell>
        <mxCell id="bj1FN5D3CyfGF1BxI-4a-15" value="&lt;font style=&quot;font-size: 24px;&quot;&gt;End&lt;/font&gt;" style="ellipse;whiteSpace=wrap;html=1;fillColor=#e51400;fontColor=#ffffff;strokeColor=#B20000;" vertex="1" parent="1">
          <mxGeometry x="721.38" y="1180" width="184.25" height="83" as="geometry" />
        </mxCell>
        <mxCell id="bj1FN5D3CyfGF1BxI-4a-17" value="Input lst_1 and lst_2" style="whiteSpace=wrap;strokeWidth=2;" vertex="1" parent="1">
          <mxGeometry x="790" y="623" width="161" height="33" as="geometry" />
        </mxCell>
        <mxCell id="bj1FN5D3CyfGF1BxI-4a-18" value="Convert lst_1 to set_1 for O(1) lookup" style="whiteSpace=wrap;strokeWidth=2;" vertex="1" parent="1">
          <mxGeometry x="733" y="707" width="275" height="33" as="geometry" />
        </mxCell>
        <mxCell id="bj1FN5D3CyfGF1BxI-4a-19" value="Loop through each item in lst_2" style="whiteSpace=wrap;strokeWidth=2;" vertex="1" parent="1">
          <mxGeometry x="749" y="790" width="243" height="33" as="geometry" />
        </mxCell>
        <mxCell id="bj1FN5D3CyfGF1BxI-4a-20" value="Check if item is in set_1" style="whiteSpace=wrap;strokeWidth=2;" vertex="1" parent="1">
          <mxGeometry x="494" y="874" width="188" height="33" as="geometry" />
        </mxCell>
        <mxCell id="bj1FN5D3CyfGF1BxI-4a-21" value="Return True - Common element found" style="whiteSpace=wrap;strokeWidth=2;" vertex="1" parent="1">
          <mxGeometry x="425" y="975" width="286" height="33" as="geometry" />
        </mxCell>
        <mxCell id="bj1FN5D3CyfGF1BxI-4a-22" value="Continue loop" style="whiteSpace=wrap;strokeWidth=2;" vertex="1" parent="1">
          <mxGeometry x="761" y="975" width="115" height="33" as="geometry" />
        </mxCell>
        <mxCell id="bj1FN5D3CyfGF1BxI-4a-23" value="Return False - No common element" style="whiteSpace=wrap;strokeWidth=2;" vertex="1" parent="1">
          <mxGeometry x="925" y="975" width="268" height="33" as="geometry" />
        </mxCell>
        <mxCell id="bj1FN5D3CyfGF1BxI-4a-35" style="edgeStyle=orthogonalEdgeStyle;rounded=0;orthogonalLoop=1;jettySize=auto;html=1;" edge="1" parent="1" source="bj1FN5D3CyfGF1BxI-4a-24" target="bj1FN5D3CyfGF1BxI-4a-15">
          <mxGeometry relative="1" as="geometry" />
        </mxCell>
        <mxCell id="bj1FN5D3CyfGF1BxI-4a-24" value="End" style="whiteSpace=wrap;strokeWidth=2;" vertex="1" parent="1">
          <mxGeometry x="793" y="1059" width="41" height="33" as="geometry" />
        </mxCell>
        <mxCell id="bj1FN5D3CyfGF1BxI-4a-26" value="" style="curved=1;startArrow=none;endArrow=block;exitX=0.5;exitY=1.02;entryX=0.5;entryY=-0.01;rounded=0;" edge="1" parent="1" source="bj1FN5D3CyfGF1BxI-4a-17" target="bj1FN5D3CyfGF1BxI-4a-18">
          <mxGeometry relative="1" as="geometry">
            <Array as="points" />
          </mxGeometry>
        </mxCell>
        <mxCell id="bj1FN5D3CyfGF1BxI-4a-27" value="" style="curved=1;startArrow=none;endArrow=block;exitX=0.5;exitY=1.01;entryX=0.5;entryY=0.01;rounded=0;" edge="1" parent="1" source="bj1FN5D3CyfGF1BxI-4a-18" target="bj1FN5D3CyfGF1BxI-4a-19">
          <mxGeometry relative="1" as="geometry">
            <Array as="points" />
          </mxGeometry>
        </mxCell>
        <mxCell id="bj1FN5D3CyfGF1BxI-4a-28" value="" style="curved=1;startArrow=none;endArrow=block;exitX=0.04;exitY=1.02;entryX=0.5;entryY=-0.01;rounded=0;" edge="1" parent="1" source="bj1FN5D3CyfGF1BxI-4a-19" target="bj1FN5D3CyfGF1BxI-4a-20">
          <mxGeometry relative="1" as="geometry">
            <Array as="points">
              <mxPoint x="588" y="849" />
            </Array>
          </mxGeometry>
        </mxCell>
        <mxCell id="bj1FN5D3CyfGF1BxI-4a-29" value="Yes" style="curved=1;startArrow=none;endArrow=block;exitX=0.47;exitY=1;entryX=0.5;entryY=0.01;rounded=0;" edge="1" parent="1" source="bj1FN5D3CyfGF1BxI-4a-20" target="bj1FN5D3CyfGF1BxI-4a-21">
          <mxGeometry relative="1" as="geometry">
            <Array as="points">
              <mxPoint x="568" y="941" />
            </Array>
          </mxGeometry>
        </mxCell>
        <mxCell id="bj1FN5D3CyfGF1BxI-4a-30" value="No" style="curved=1;startArrow=none;endArrow=block;exitX=0.72;exitY=1;entryX=0.2;entryY=0.01;rounded=0;" edge="1" parent="1" source="bj1FN5D3CyfGF1BxI-4a-20" target="bj1FN5D3CyfGF1BxI-4a-22">
          <mxGeometry relative="1" as="geometry">
            <Array as="points">
              <mxPoint x="713" y="941" />
            </Array>
          </mxGeometry>
        </mxCell>
        <mxCell id="bj1FN5D3CyfGF1BxI-4a-31" value="" style="curved=1;startArrow=none;endArrow=block;exitX=0.65;exitY=0.01;entryX=0.5;entryY=1.02;rounded=0;" edge="1" parent="1" source="bj1FN5D3CyfGF1BxI-4a-22" target="bj1FN5D3CyfGF1BxI-4a-19">
          <mxGeometry relative="1" as="geometry">
            <Array as="points">
              <mxPoint x="871" y="941" />
            </Array>
          </mxGeometry>
        </mxCell>
        <mxCell id="bj1FN5D3CyfGF1BxI-4a-32" value="All items checked and no match" style="curved=1;startArrow=none;endArrow=block;exitX=0.81;exitY=1.02;entryX=0.5;entryY=0.01;rounded=0;" edge="1" parent="1" source="bj1FN5D3CyfGF1BxI-4a-19" target="bj1FN5D3CyfGF1BxI-4a-23">
          <mxGeometry relative="1" as="geometry">
            <Array as="points">
              <mxPoint x="1059" y="849" />
            </Array>
          </mxGeometry>
        </mxCell>
        <mxCell id="bj1FN5D3CyfGF1BxI-4a-33" value="" style="curved=1;startArrow=none;endArrow=block;exitX=0.5;exitY=1.02;entryX=-0.01;entryY=0.39;rounded=0;" edge="1" parent="1" source="bj1FN5D3CyfGF1BxI-4a-21" target="bj1FN5D3CyfGF1BxI-4a-24">
          <mxGeometry relative="1" as="geometry">
            <Array as="points">
              <mxPoint x="568" y="1034" />
            </Array>
          </mxGeometry>
        </mxCell>
        <mxCell id="bj1FN5D3CyfGF1BxI-4a-34" value="" style="curved=1;startArrow=none;endArrow=block;exitX=0.5;exitY=1.02;entryX=1;entryY=0.39;rounded=0;" edge="1" parent="1" source="bj1FN5D3CyfGF1BxI-4a-23" target="bj1FN5D3CyfGF1BxI-4a-24">
          <mxGeometry relative="1" as="geometry">
            <Array as="points">
              <mxPoint x="1059" y="1034" />
            </Array>
          </mxGeometry>
        </mxCell>
        <mxCell id="bj1FN5D3CyfGF1BxI-4a-36" value="&lt;font style=&quot;font-size: 36px;&quot;&gt;12. Write a program that takes two lists and returns True &lt;span style=&quot;white-space: pre;&quot;&gt;&#x9;&lt;/span&gt;if they have at least one common member.&lt;/font&gt;" style="text;whiteSpace=wrap;html=1;" vertex="1" parent="1">
          <mxGeometry x="410" y="60" width="910" height="180" as="geometry" />
        </mxCell>
        <mxCell id="bj1FN5D3CyfGF1BxI-4a-37" value="&lt;font style=&quot;font-size: 48px;&quot;&gt;Method : 1&lt;/font&gt;" style="text;html=1;align=center;verticalAlign=middle;resizable=0;points=[];autosize=1;strokeColor=none;fillColor=none;" vertex="1" parent="1">
          <mxGeometry x="740" y="300" width="250" height="70" as="geometry" />
        </mxCell>
        <mxCell id="bj1FN5D3CyfGF1BxI-4a-38" value="&lt;font style=&quot;font-size: 48px;&quot;&gt;Method : 2&lt;/font&gt;" style="text;whiteSpace=wrap;html=1;" vertex="1" parent="1">
          <mxGeometry x="760" y="1400" width="290" height="80" as="geometry" />
        </mxCell>
        <mxCell id="bj1FN5D3CyfGF1BxI-4a-40" value="Input lst_1 and lst_2" style="whiteSpace=wrap;strokeWidth=2;" vertex="1" parent="1">
          <mxGeometry x="766" y="1683" width="161" height="33" as="geometry" />
        </mxCell>
        <mxCell id="bj1FN5D3CyfGF1BxI-4a-41" value="Loop through each item in lst_1" style="whiteSpace=wrap;strokeWidth=2;" vertex="1" parent="1">
          <mxGeometry x="725" y="1767" width="243" height="33" as="geometry" />
        </mxCell>
        <mxCell id="bj1FN5D3CyfGF1BxI-4a-42" value="For each item in lst_1, loop through lst_2" style="whiteSpace=wrap;strokeWidth=2;" vertex="1" parent="1">
          <mxGeometry x="432" y="1850" width="313" height="33" as="geometry" />
        </mxCell>
        <mxCell id="bj1FN5D3CyfGF1BxI-4a-43" value="Check if any item matches" style="whiteSpace=wrap;strokeWidth=2;" vertex="1" parent="1">
          <mxGeometry x="371" y="1952" width="206" height="33" as="geometry" />
        </mxCell>
        <mxCell id="bj1FN5D3CyfGF1BxI-4a-44" value="Return True - Common element found" style="whiteSpace=wrap;strokeWidth=2;" vertex="1" parent="1">
          <mxGeometry x="310" y="2054" width="286" height="33" as="geometry" />
        </mxCell>
        <mxCell id="bj1FN5D3CyfGF1BxI-4a-45" value="Continue inner loop" style="whiteSpace=wrap;strokeWidth=2;" vertex="1" parent="1">
          <mxGeometry x="646" y="2054" width="156" height="33" as="geometry" />
        </mxCell>
        <mxCell id="bj1FN5D3CyfGF1BxI-4a-46" value="Return False - No common elements" style="whiteSpace=wrap;strokeWidth=2;" vertex="1" parent="1">
          <mxGeometry x="852" y="2054" width="274" height="33" as="geometry" />
        </mxCell>
        <mxCell id="bj1FN5D3CyfGF1BxI-4a-61" style="edgeStyle=orthogonalEdgeStyle;rounded=0;orthogonalLoop=1;jettySize=auto;html=1;entryX=0.5;entryY=0;entryDx=0;entryDy=0;" edge="1" parent="1" source="bj1FN5D3CyfGF1BxI-4a-47" target="bj1FN5D3CyfGF1BxI-4a-60">
          <mxGeometry relative="1" as="geometry" />
        </mxCell>
        <mxCell id="bj1FN5D3CyfGF1BxI-4a-47" value="End" style="whiteSpace=wrap;strokeWidth=2;" vertex="1" parent="1">
          <mxGeometry x="700" y="2137" width="41" height="33" as="geometry" />
        </mxCell>
        <mxCell id="bj1FN5D3CyfGF1BxI-4a-48" value="" style="curved=1;startArrow=none;endArrow=block;exitX=0.5;exitY=1;entryX=0.5;entryY=0.01;rounded=0;exitDx=0;exitDy=0;" edge="1" parent="1" source="bj1FN5D3CyfGF1BxI-4a-59" target="bj1FN5D3CyfGF1BxI-4a-40">
          <mxGeometry relative="1" as="geometry">
            <Array as="points" />
            <mxPoint x="846.4901960784316" y="1633" as="sourcePoint" />
          </mxGeometry>
        </mxCell>
        <mxCell id="bj1FN5D3CyfGF1BxI-4a-49" value="" style="curved=1;startArrow=none;endArrow=block;exitX=0.5;exitY=1.02;entryX=0.5;entryY=-0.01;rounded=0;" edge="1" parent="1" source="bj1FN5D3CyfGF1BxI-4a-40" target="bj1FN5D3CyfGF1BxI-4a-41">
          <mxGeometry relative="1" as="geometry">
            <Array as="points" />
          </mxGeometry>
        </mxCell>
        <mxCell id="bj1FN5D3CyfGF1BxI-4a-50" value="" style="curved=1;startArrow=none;endArrow=block;exitX=0.06;exitY=1.01;entryX=0.49;entryY=0.01;rounded=0;" edge="1" parent="1" source="bj1FN5D3CyfGF1BxI-4a-41" target="bj1FN5D3CyfGF1BxI-4a-42">
          <mxGeometry relative="1" as="geometry">
            <Array as="points">
              <mxPoint x="578" y="1825" />
            </Array>
          </mxGeometry>
        </mxCell>
        <mxCell id="bj1FN5D3CyfGF1BxI-4a-51" value="" style="curved=1;startArrow=none;endArrow=block;exitX=0.38;exitY=1.02;entryX=0.5;entryY=0;rounded=0;" edge="1" parent="1" source="bj1FN5D3CyfGF1BxI-4a-42" target="bj1FN5D3CyfGF1BxI-4a-43">
          <mxGeometry relative="1" as="geometry">
            <Array as="points">
              <mxPoint x="473" y="1918" />
            </Array>
          </mxGeometry>
        </mxCell>
        <mxCell id="bj1FN5D3CyfGF1BxI-4a-52" value="Yes" style="curved=1;startArrow=none;endArrow=block;exitX=0.46;exitY=1.01;entryX=0.5;entryY=-0.01;rounded=0;" edge="1" parent="1" source="bj1FN5D3CyfGF1BxI-4a-43" target="bj1FN5D3CyfGF1BxI-4a-44">
          <mxGeometry relative="1" as="geometry">
            <Array as="points">
              <mxPoint x="453" y="2020" />
            </Array>
          </mxGeometry>
        </mxCell>
        <mxCell id="bj1FN5D3CyfGF1BxI-4a-53" value="No" style="curved=1;startArrow=none;endArrow=block;exitX=0.71;exitY=1.01;entryX=0.26;entryY=-0.01;rounded=0;" edge="1" parent="1" source="bj1FN5D3CyfGF1BxI-4a-43" target="bj1FN5D3CyfGF1BxI-4a-45">
          <mxGeometry relative="1" as="geometry">
            <Array as="points">
              <mxPoint x="609" y="2020" />
            </Array>
          </mxGeometry>
        </mxCell>
        <mxCell id="bj1FN5D3CyfGF1BxI-4a-54" value="" style="curved=1;startArrow=none;endArrow=block;exitX=0.69;exitY=-0.01;entryX=0.74;entryY=1.02;rounded=0;" edge="1" parent="1" source="bj1FN5D3CyfGF1BxI-4a-45" target="bj1FN5D3CyfGF1BxI-4a-42">
          <mxGeometry relative="1" as="geometry">
            <Array as="points">
              <mxPoint x="814" y="2020" />
              <mxPoint x="814" y="1918" />
            </Array>
          </mxGeometry>
        </mxCell>
        <mxCell id="bj1FN5D3CyfGF1BxI-4a-55" value="" style="curved=1;startArrow=none;endArrow=block;exitX=0.83;exitY=0.01;entryX=0.5;entryY=1.01;rounded=0;" edge="1" parent="1" source="bj1FN5D3CyfGF1BxI-4a-42" target="bj1FN5D3CyfGF1BxI-4a-41">
          <mxGeometry relative="1" as="geometry">
            <Array as="points">
              <mxPoint x="846" y="1825" />
            </Array>
          </mxGeometry>
        </mxCell>
        <mxCell id="bj1FN5D3CyfGF1BxI-4a-56" value="All items checked" style="curved=1;startArrow=none;endArrow=block;exitX=0.73;exitY=1.01;entryX=0.5;entryY=-0.01;rounded=0;" edge="1" parent="1" source="bj1FN5D3CyfGF1BxI-4a-41" target="bj1FN5D3CyfGF1BxI-4a-46">
          <mxGeometry relative="1" as="geometry">
            <Array as="points">
              <mxPoint x="989" y="1825" />
            </Array>
          </mxGeometry>
        </mxCell>
        <mxCell id="bj1FN5D3CyfGF1BxI-4a-57" value="" style="curved=1;startArrow=none;endArrow=block;exitX=0.5;exitY=1.01;entryX=0.01;entryY=0.41;rounded=0;" edge="1" parent="1" source="bj1FN5D3CyfGF1BxI-4a-44" target="bj1FN5D3CyfGF1BxI-4a-47">
          <mxGeometry relative="1" as="geometry">
            <Array as="points">
              <mxPoint x="453" y="2112" />
            </Array>
          </mxGeometry>
        </mxCell>
        <mxCell id="bj1FN5D3CyfGF1BxI-4a-58" value="" style="curved=1;startArrow=none;endArrow=block;exitX=0.5;exitY=1.01;entryX=1.01;entryY=0.41;rounded=0;" edge="1" parent="1" source="bj1FN5D3CyfGF1BxI-4a-46" target="bj1FN5D3CyfGF1BxI-4a-47">
          <mxGeometry relative="1" as="geometry">
            <Array as="points">
              <mxPoint x="989" y="2112" />
            </Array>
          </mxGeometry>
        </mxCell>
        <mxCell id="bj1FN5D3CyfGF1BxI-4a-59" value="&lt;font style=&quot;font-size: 24px;&quot;&gt;Start&lt;/font&gt;" style="ellipse;whiteSpace=wrap;html=1;fillColor=#008a00;fontColor=#ffffff;strokeColor=#005700;" vertex="1" parent="1">
          <mxGeometry x="754.38" y="1520" width="184.25" height="83" as="geometry" />
        </mxCell>
        <mxCell id="bj1FN5D3CyfGF1BxI-4a-60" value="0" style="ellipse;whiteSpace=wrap;html=1;fillColor=#e51400;fontColor=#ffffff;strokeColor=#B20000;" vertex="1" parent="1">
          <mxGeometry x="628.38" y="2280" width="184.25" height="83" as="geometry" />
        </mxCell>
        <mxCell id="bj1FN5D3CyfGF1BxI-4a-62" value="" style="shape=image;verticalLabelPosition=bottom;labelBackgroundColor=default;verticalAlign=top;aspect=fixed;imageAspect=0;image=data:image/png,iVBORw0KGgoAAAANSUhEUgAAA4MAAAItCAYAAACD9q/QAAAAAXNSR0IArs4c6QAAAARnQU1BAACxjwv8YQUAAAAJcEhZcwAADsMAAA7DAcdvqGQAAIbpSURBVHhe7f1fiGv3ned7f7brwhmIajXDPhvaqnU8uNpKtVoX49MxVWtGExxDparRkxNj1Jvk4jkeGgQiHWpSNsYcCE7HGIbGxEUX7lAgaI5nLmJ2F8F+gmhVF7hDTk2vLdyZzIVaUcqRZxuVdqDYDEgrN9uDxs/FWlItLf0p/a0tld4vEHtradVPv/VbS3+++v7+3Lh3797n6sE0zeAmoINTOtZRoSbTSmo9HHz0KjgqHR+pUAtuv2DEtrS5FgpuBjBVs/rarCp/aKsiU9bWusLTfvpqXod25eK+EdPW5pqm/bSzZ1avh0fEqSp/ZKuysNcDgFnwWHADMH9CWtvckmUaMoz2RwzDVMxaoC8XwEyZ1ddmWOtJS6YhXe03cEOGaS3wF/9ZvR4ekZAkw5S1sNcDgFlwg8wgAAAAACweMoMAAAAAsIAIBgEAAABgAREMAgAAAMACIhh8BJzSsQ4PD3WcrwYfAgDwPglcC7yOgdnHBDJXzj+1tikrua5HshoDFt6jXxJkRjglHR8VpEWa0v5KNZdx8DEtJftedLxPjs1bzmLhX994hIZ/HTvVvO4WK6r5lh+Z9jU8b5+F81bf+TPKZ9Z8Gysz6JSOdXhckuPdr+YP2+6PzlHp+FCHh5MqbzDuL1jHKvV8wqryh4c67r3DAEIKm+6c2oa50veN0Skd6/gwL35Pw7Bm4dqZVh2mVe68ud7tMPj75DCud5vNl4U+F05Jx4fed5yet37fRebFcK9jp3SsI7s9EBzXQl9nC4Jz7BqnHcYKBuu1mrQc8tbHceTU5bs/BqeqSs3LTNYqqs79G2K70NqmksmkNi/5laFeq2mC74lYILNw7UyrDtMqd97MTzuEtZ5MKplMKpm0NGh/k0HfJ4cxP212/XEuFsPgr2NH1UpNkqGYteW9X7i3S/+0D66z62/y53i0z6xHbZx2GCMYdIM/w1j27tcn9muOU62oJlMr6ysyVVPliqLBUGhZUk21evARj+PIjXfHDncBAMAiCq1p0xfsJC3366Zp+bYlN7VYvda975BmVGvhhTpw4JEbYcxgl7603Yzcv9brY75sKbm+7P5fMW1tro2fcbzMZWMsvLFFy63H3baox7a0uSaV8ndVqLgRsWHGtLHur3OXduvWRl4d+jE6xjY5qpaKKhYq3q8Chgwzqo318Hht5lRVKhZVqVz82mAYpqIb6xr1vdrt6y7FtjYVruZ1t1lnw1RsYz3w4TdM+8pth/xdFQeqr7uv7ZXXzlBsq/lBPGQdBmkz33W0cnbs1sGIaWszrKpXvmFaA/ySGjDkteMfdxB1LjsXAx7bkHUY2CjlDlJfXZyP4JjBav5QdsV9nW61vZaGeb0F93Wvm2h0rcs1OYAh2sGtf79xOt57Utv70DCvoVF0e84uj/s39dxXg7XvEG12YYByRzHgNXnxPrmhUNVXj16vzWZ9K51d7Hp+nl1qyPe+jjbr8roY8lz436PajsErp/28DV7fkdt30tdD02XfPYY+tkHbTF2Orct5G9qwr2MN8N4whDGus4E+CwdpM+9zpWZ0//7qvj/7v2sMbuj6DvK+M1J9B2iHUQxS3yHP8egGuS6HaIdBjq0lWG6X950JtcMYmcEp8bqIuhlHr7/5o+oq6pR0PEi//VpV+cOj1puzJNUqBR1d0exZ1fyRbN/FItVUq9g6Gmu8paPSXVsF3wUrSbVaRfbRaH2S/Sp3D3Xkr3OtosJRj7YeqH3dHxHsrvUNlnux78AGrcMQbVYveoGg3OMv+j7ga5Vi97aYOEP14nGXcxGs73DH9uiNV1+ndNwKBJOBN/RhXm+d+7rXjV28rAbjWzYMSXU5wUo1eT0dLnp3DPMamg3Tat/plDvsNVlT5W6gHj1em636DvGWNrCB3vu6tVnv18VUDVjfwdu327FN4noYwcDHNrjOY7vC89Y2dtILHit2+9jJq6iHNMRn4YBtFgrLNNwyOr+/VnVW8bKg/b+j9zFofQd83xmkvobZFrAM1A5DG7C+M2Twdhju2DrLnd77ztJ3v/vdvwhubDIMd+Bvu2WtRKOKRg05xTMZVlJf24gqaj6mavlct5r3V5pfMIbj/Pdf6p/Pv6Cnn/lD3Xxcevzx/6lquaL6vzC1evPx4O6TdeN3qpbP9fD33Ody61LTw+ZzPyjrl2c39L//0arcqjiqFs90Xj9XXYZi1nP6ysYzipqGnPKZ6vUbMqIrclui2W4XbVc3zM52Wl7x9onKcIo6q5uykl/TRutvo+3tUM3r7/+57mYvvrahZ6JRRaOmDOeBzs4r+syIKvgUg/lMDx58plt/ZLnH1Cq3rLN6XTdGLPezB5+ofF7Tw4eSYVp67msbeiZqynjsgc78bS0N1b5O6eeyKw8lIybrua9o4xlfO9RrOv/MuGjr6n/Tz35Td7NxX/+K22bNMmXKSn5FT7WaePA6DNxmnz3QJ+Vz1R4+lBHb0tdXP1Px7Fz1+kOZVlLW71VVPq/p8VtDtvGQ187FuXjYfi6C9XX3HuzYhqzDwIYud8D66uJ86NYfuK9771dXw7T09eAvgUO93qr61d0z1c2Ytr7mXWfRqEzjMX1243Gt3Bzm5HqGaIfHHz5Q8ez84jqq5nX497/SY6b3/vWgrF+e1XVr9RmtLA/5GhqZ+3rq+t4nDf4+KQ3evkO02VDlDm3wa9J9bT7sfJ/ssq+q/829JtvOW1Sm4ah8VpdhDvk+0jLEe9+gr4shz0WzHTqOwamqeFbXF7zXrLdx4PoO1b5Tux58vOPpOM6W4Y+to6xubTboeRvagK9j7733YfvWdl+4pT9YvamhPjVGus4G/CwcuM0e180vOCqenQe+10iq/kp3z+oy/2hjpPYdqr4Dv+8MUN//4yt6auh2GNaA9R3yHI/uks+sodphwGNzCx7sfWdC7TB6ZtBxVJehiyGDNdX890fiDSD2//rg/VpRq1TH+KVhFG5dDMMY4LlNWcnNi37uobBWuvWwnYKq+/OSrLbsRUjh9ahMSZWzUX9BCGltfT3Qdz+k8IQOzIhtabNV55DCa259u7f1Ze3bHHhuytr0d9sJKby+oZghqXLW+tXFcdxBoWbU1xUiFFY01i+TclkdNHybGTFt+H8WNGKKhptjV6+Q1yW1dS68+tbbGmLIY3vkRquvPxDs1k13pNdbpaKq76fWUHhN62udZU/csiHDdx7d6z44Brv5nj3ca2imTKt9J17uCNfkpa9NR6Wid022nTd1dk8a2eXvfSO9Lqbm8vq2XNq+PhO/HkYxxLEN4JGft7axk95EHabVNnlMskuXxakZ4HoYqs3CK12/11TPKq3P+7EMUN+h3nf61VemVnz1HaodhjJEfWfAcO0wwrFd0fvO0MGg4y0genhUUE01FY68VL5dkVr3R+xS1OwiarY3qjuvS7fU9YSFQl6GR95gZkNm1JTR9tzL6pg/psuUyeH1pJI9x+pMijeDqyqyO6al9rpc1J0uwdWAnKryx975bt4u6Zs8qM5JeJbVNRGtQdq3OfC8c7/W9eML8prBVuXMl8J3qioWat3Pr7qX3fUcD9Fm7dd55/2rYvrf4fsZ4thmwrD1rdzVUaHW+oDtNOzrLax1y5Shmgr2kQ4Pj5Uvlab/PtbU9n7mBnumabY+6N3gsHm9D/camg3Tat9plTv8NTnwa9MwfOd6wrpcE+3vfcO+Lqbs0vpeGKx9p3g9DGuIY7vcjJ23GXD59TBsm3k/Mvu/QzolFSuT+by/vL6egd93vB8X2r7zNru0+q+9YdthSAPX91EboR0GPrarfd8ZOhicJncWUalWOGprKLedgr9oT0+tVpeqZ6oYpsLhkJa9GUabGaWF4JR0fGSrMpVBKI9YOOplOgo6al5nR94Lt8uH7cCuc5vN27GNUl+zeV0UNcYQnHbhdW0mt7RlxWQaNVUKBdlHhzqe2BP04/7AUqvVvWDP1ErUaP24Va/VphtEXIVpte80yh3lmrzU5GbxRh/TuB6wEEJh9wt98/trc7b86OiDBYcz5PtOOBprq6+qZ6rIUGzsNOaAhqzvXBn22K7wfWfoYLC5ZsxWzJDbZcFN5Vum281ta+QpkZvdlHoLpq6nyXHq3pqJ7i8lo6e8x9Xv13jvF/tWu3e5jdjFolosqCbJiFntZXtTYE+clxUea53Krt3Ymr/c+DJ+1aIKteCYWENmbKvPbFGXu/I2u1S/a2c4ox/b5OrQrn+5o9V3WWublvuma3fr3TDq6y3kdu3YTCqZ3JL7Q/GkJgjq1w5efeuOnOqZKoah5VDYPb7mB33w9Tboa2imDNu+/drMb9hy+xvtmryM16OiVlPwp0q3+9JVGPV1oSHORbvqWfBor8Jkr4er1tlm45y3eTPaddZphDZrG+rkfc8d50fnIQ39vhMYmuV2aW2fOGakdhjQ0PVtmdQ5HsZw7TDasQ37vjNaOwwdDDbV2yLb5peFMTSDgWB/ce9mdaSuW3+oUt5NuY4fLXsfrPWi7hZqrRR8eMWUKkUVa7rSX9Ld2QBrqlR7B8HLhiHVCrqbr450AVxmObTcupCdakn54qS+YPgq61SVv+u+SAbu9tCmOW6iIjvvbyt3mvyCW3DrzbfZxzu6saGtreY1tqn14X/B6Gp6bTa4Qa6dUQxzbFOrwxDlDlNfV1jrm5ZM1brObjvU680pKZ8vqRoYvxF2p2zrvZ7pgAZpB7e+NVXPKl63JPf5a5Wi2r8bDvcamgkjtO8gbTZKucMY/prsp9mFt6Ji82J1qiodN3vUXI2hXheeQc5FZ5d+R9W8bxbmqzDl62HShmmzUc7bvBnkOhvG8G0W0lrUlGoFFUtVVWpXmGXzGfx9xz+Lv9tFtFuX1uHbYTiD13fy53gYo7TDQMc2wvvOOO0wwjqDrmr+UHa9uR6Jf23AES/yS9bZaU3sEFwvo7k2iuRlKkfpO9/kHUdN7WX5n6NtDZZB1h/xXLIWSMdxqffftO/rr3OnXu15mWZ79zKVcjvacYj27bauUZNhytq8uC761aFzvZfB69CvXPnbLLiuXXD9p0teCwMZ4NoZZj2qgY/Nb4A6jGSAcoeqb/B8+LbVOt5Thni9tb03BQXLHcFQ7eBbH8r3d93WaesssfM1NJQe9Wxqq8Mw+47Svj3KH7vcAQxzTQ7z2uxVX8M0pUrFty7usAZ/7xvqddE0yLnodU16P3J03XeA+k6ifV2jXw9tLn3PH/zYhmuzEc7bIHqc26bunwHDHOMQetSl2/tkx/F2ux5GajPfOemxjt8whqnvMO87F9z6yjRVqajHNT5KO1xupPoOcI6H0qO8plGvh6GObZT3nR71HqQdRswMBjOB449b6DZbkZ/b77o5/qXtAZmmIUkyxv7luvkrq/vG2coANtdfkTq7VU1TeF1bltl7YhXJ/dVpc0uW6c4cOCmhtU1txdw2dxkyTEtbVmyizyO5bW3G3IW9RxfW+palWOtE6aLOgS+xIW/mUnmfj3691nsZxJW22WUGunYGN9KxTbgOLQOUO1J9/UJr2rRMN1N27L8ehni9hda00VFPrx7d3siHNUg7tN7QfF08vRnjpOBEToO/hmbCKO07QJuNVO4Axr4mewmtadOKXdTXMGRaW9qMjlXqkIZ4XTQNci4U1vpW7OLzV95nxebFe/jUTel6mJ5h2myE8zZvBrrOhjFKm13M+totyzZNo73veMOjKpU+PUJGaYfLjVTfiZ/jYQzeDkMd2yjvO2O0w8iZQWAUPX/RujLNX3FMWVv+DKD3WP5IhUqPX58AAACGVM0fyq70yOgAj9iImUFgXl1ksYMTHztOXTW3H8eY62UCAAA0x2xKRixKIIiZRGYQV2p2MoPB7RcG6V8NAADQVXD81gTGCgLTQmYQC8bXvzvQr9owTMUsAkEAADAJzXHXBIKYXWQGAQAAAGABkRkEAAAAgAVEMAgAAAAAC4hgEAAAAAAWEMEgAAAAACwggkEsHKd0rMPDQ+WrwUcAAACAxTFWMOiUjnV4XGot3V3NH7bdBwAAAADMprGCwXqtJi2HvLVTHDl1+e4DAAAAAGbVGMGgG/wZxrJ3v65aLbALAAAAAGAmjbDofFX5Q1uV4OYg01JyPRzcOgBH1fxdFSs1NWNLwzAV3VhX2JdydErHOipIsa0NhapFFQsVd3/DVGxjXWsd6UlH1ZJvPxkyzKg21sPjZzKdqkrFogqVVo1lxja03lGJAY7NKen4qKBlK6mVs2PZlZpkxLS1GVY1f1eFSk2GaWlzPTzcvsPUYaT2HcCo9b3svA1Z7sWxbSpczevupcc2QB2k1mujHtvS5ppU8p5bkgwzpo31tfGvNQAAAGBClr773e/+RXBjk2EYwU3uF+PimerBzUGGqehKM2s4KEel4yP91/OHeujb+vBhXWflqh4zV3XzcXfbZw8+Ufm8pocPyvpNpX6x/8O6zsuOjOiK/M9ezf9U9m98++mhHtbPVK4+JnP1prxih+eUdHz0X1Wpt9VY9fMHbfUd+Ng+e6BPyud66FT1m3MvXHv4UJ85Z/qNF1g8rDvu/hpi38c1eB1GaN+BDHNsXj0GOm9Dlusem/TwwSf658p54Nja20GD1kFqvTYePv4v9OCurd/4romH9XOVHWOE1wQAAAAwHSMEg8taiUYVjRpyimcyrKS+thFV1HxM1fK5bjXvj/Cl1yn9XHbloWTEZD33FW08E1U0aspwHuisXtP5Zxdfpt0v9A/18KFkmJae+9qGnomaMpyyzup13TCialWhmtff/3NdMi1tfW1Dz0R95Z5X9Jl/36E4Kv3cVqWtDl7Zj9X12fJKK6gY+Ni8wKb28KGM2Ja+vvqZimfnqtcfyrSSsn6vqvJ5TY/fimrl8SH2XR6iDsO276CGObblIc7bkOW2At2HD9uP7bEHOjuv6eG/MLV6EY0OVgepFQye189Vl6GY9Zy+svGMoqYhp3ymev3GaEE0AAAAMAWjjxl0HNVl6GLIYE01//2hOapWapJMWZtrvi6LIYXXNxQzJFXO1LEagNf9z909pPCK27W17lzMaVo9q7jltnXrCym8HpUpqXLWUepgnKrcKvvrILfsNX93wxGOzYhpw99f0YgpGpZCoS4NPNC+I9RBwWPr3r5DG6i+I5y3ActtMmJb7ce25pZbq1QvZsgdtg6Su39yU2vNRg6F5TUbAAAAMDOGDgaba7QdHhVUU02Fo0P3vl2RWvePVRo6VvAmoDFX1DnSMCT3+3xdwRjEXOncu503y6kqsg+9urZu3tjHujPachh1d9zd5XUY/tgMs308WvC+X/Cx4H3X8HXQQMc2vGD9gvddw5+3YDnB+0HLoeCjy2pPhg9fB6l7G4fXk0om1zu2AwAAAI/K0MEgLjhupAAAAAAAc2foYDC0tqlkMqmtmOF1h0sqmUzKMt1ueVvJpJLJzS4zMg6oW1fFVoZmWR3JnEt5Wa9W3brcNkeb5bHZ/XDgLpMTP7YRzEIdBjK989ZTs9tva63MR1AHAAAA4IoMHQw21dsWFWwGE+NojquqyM5fjNmStxRCoWcXx8stG4ZUK+huvtrRDXIs4RV3jFnhSMelQJ1LeV9X2ekd2+BmoQ7Dmdp5a/EV6lRVulvo6PZ7FXUo5d2u18f5zjAdAAAAmJaRg0FJkmG0z4zYyqiMJrxuyY1XbB21xmYdeevGuZN4jCK05k6QUqvYOmqOcfTdRv8OHta65c4MUisE6lxoj46ndWzDmIU6DGN6581VsY8uyjuyvYDYkr8Zpl0HOVVVvOUval2ztgAAAMB0jBgMBjOB3uQkYwtrfctSzPTP4mHIMC1tbY4z+UZIa5tbskxD3RbLGEt4XVtWTGbbzCPuovPtXWWndWzDmIU6DGM65y0UjipmGu2TxRiGzNiWkh0B8XTq0BIKy/TOhzFjmVkAAABcbzfu3bv3eXBjk2kyHz4AAAAAXEcjZgYBAAAAAPOMYBAAAAAAFhDBIAAAAAAsIIJBAAAAAFhABIMAAAAAsIAIBgEAAABgAREMAgAAAMACIhgEAAAAgAVEMAgAAAAAC4hgEAAAAAAWEMEgAAAAACwggkEAAAAAWEAEgwAAAACwgAgGAQAAAGABEQwCAAAAwAIiGAQAAACABUQwCAAAAAALiGAQAAAAABYQwSAAAAAALCCCQQAAAABYQASDAAAAALCACAYBAAAAYAERDAIAAADAAiIYBAAAAIAFRDAIAAAAAAuIYBAAAAAAFhDBIAAAAAAsIIJBAAAAAFhABIMAAAAAsIAIBgEAAABgAREMAlNVVf44r2pw89AmVc4kTapOkyoHAAAAw1iIYNApHevw8FD5q/q2Wc1f7fNhRjkqHduq1CQ5wceG5EiqVWQfzkrQdJ2PDQAAYDEsffe73/2L4MYmwzCCm9o4pWP99Jf/U+bqTT0uqZo/1N//6rHW/avglI7185890BeiK1oOPuj57MEnKp8/lGFGtdJrp0lyqiqe1SfwfI6q+Z8rf/eX+mX1atsVfr7zUCyqWCyq6jymLxg3tdznhFTzP9V/PTcU2/qKngoFHx3S48taMR9Ttfwb/cYxFB3vwvK5zscGAACAfsbKDNZrNWk5JPe7oCOnLt/9q1Gv1VQLbpx3jqNq/liHh0eyK9fw+OaKo9Jx53moVQqyj/pksqp52RXJiG1obVIviNCaNmKGVLEnlHW+zscGAACAy4wRDLrBn2E0f8Wvq0bUMhHVovsFXTIUs2IygzvgyjiluyrUJBkxWVtJJZNJJZNbskxJqsjuGrk4KhUrkhHTxsSiJVdoLSpTUqVYGr935jU+NgAAAFzuxr179z4PbmwyzW5hSFX5Q1uV4OYg01Iy6uj4qKBlK6mVs2M3wDFi2toMq5q/q0KlJsO0tLke9v2ho2qpqGKh4mUrDBlmVBvr4YuMYzWvQ7t/DYzYlja9L6tO6VhHhZpMK6mok9fdZtmGqdjGepfshqNq/q6KvoyJYZiKbqwr3G3fUlHFSqUjGDatpNoObVDVko7PQt4xe+1txLS1uXalWVc0r3VTVnJd7afSzaoVal0e865P/zUY5F6TUmxrQ6Gq73rveU1e8F/PI11f0jU/NgAAAAxijMzg4OpFLxCUO1FE0QsE3btFlXxpgGr+SHYrEJSkmmoVW0fH42YLDNWLxzryl12rqNDRHa5H17laRfbRcVtd3aDRq+8ks6LhNW36g188GtUzVSQZsWggWJKkkMKmIamis0ACrXpWkWTI7PzlIKCmyt3A9d71mmwXCpsyJFWCTzyM63xsAAAAGMgIwWBY68mkkklLppf9SiaTSm7FZPjv+37Wr9VqMmJbSlqm+yWx4v7yvxUz3GCv7u3ojUWSaWkr6e+2Zki1gorN74fhde+xpNelzZTV2t+9dWYtam49WmVfdIfzf+/s3XXOrWuhVQlJ1aJb37Z9k9pyC8Y1sRwKXkuuUKjbRCfe2FnD7JJF7lSr6dJrskMoLNOQVHfG/IHkeh8bAAAA+hshGPQ4juoydDFksKaa/75fcHyREVM03PmF0806mLLasmIhhde9sUR9v0UOwOuS6pYdUnjFDdrqTvNrp6NqpebWYXPN94U3pPD6hmJuysLLbHhjpzr21Uxn9JrLbARvx+0pz6ENU+609p00x2n+StHfxfWji7Gzg06kdOk12U1IoWU32hqshp2u87EBAABgMEMHg60v50cF1VRT4cj7gm5X3MzZ0aEOD9u7Uxpme5fH4H2Xl3VQRXbHl39vjOKY2QJzpbNDXDvvy6650rXrnBu71tX2XdYwei5pgfkW/LGil17ZtUFcfk1Ox3U+NgAAAAxm6GAQTfM5e2pobbOtO23vbrXDGabcae07Lb0yWYNm12bZdT42AAAA9Dd0MNj8cu6O97sYq2eZbvdPd3zQZt8ZA7vzMm+tMrrces6mGcjWjavVFdSvmblclpssWZZhdO/O5nZ3xdxbNmRIqlWqXTLSVRULbpfi9gSYd12MmcXurzl2b4ys9HU+NgAAAAxk6GCwqd6WFmsGSuNZNtyJYu7mqwMHd8tuRKZKtduX2mGF5Q5rctdYuyjPXWrC/X7c7ELa7DZaUbHZJ9apqnR86E4qg/kXWlPUlFQr6Mh/PThVlY7drsuds3E2x7xVVB3/guzOqaoyzNi9bq7zsQEAAGAgIweDUpdf78f8AhdacydpqVVsHTXHIvpu3dbAbo59qhVsHU1ggpHwujtLqir+8rxF4A13cpvWvlF3BtVa4cgbR2mrUJMM050ef2TVfOd4yVrhoj5jL7OBQTXPcdv14J3njomRmn+z4s2aO6WIyam6yzWMOybvOh8bAAAALjdiMBjMBE5q/FxIa5vuMg4DB1PhdW1Zptt9bSLCWt+yFDP9BRruFPmbgQW4Q2vatGIXz20YMq0tbUYnVhk8aqE1bXa5HsyYpa1e3ZbDUfdHjUKxS3fjcXkz3noz8o7lOh8bAAAALnXj3r17nwc3Npkm6+UBI6nmdWhXZMS2JjrZjVM61lHBXafTl6S+Wtf52AAAABbIiJlBAH2F12WZUq1wt22ZlbE4Jd0t1CTTerTB0nU+NgAAgAVCMAhMiTv+tKbCUX78CVecqvJHBdWMmLZmIFq6zscGAACwKAgGgakJaz1pyTSk7gPwhhCSO4FRr7F8V+46HxsAAMBiYMwgAAAAACwgMoMAAAAAsIAIBgEAAABgAREMAgAAAMACIhh8pHJKx9PKBTcDHbhWAAAAMFkTDQZL6W/qjaVv6o30R8GHRnBfpf13dLDklendfjLKt+FyXvGlt7XUdss+4i/WZe3HE8rYksrBx3JKLy1pyX9LP9razr5r3mZlSXZGiSUCQgAAAEzGRIPBSSqlX9ad3ROdBx+YQeVcXun4f9JS+jfBh3rKpSPatS3tnR5oezX46HSV9+OKTyWoKCuXjiu+tKSl+H5njDvHptJm5Zz203FfABtXer9Hq61u6+B0T5YySlynIBcAAACPzGwGg+UP9LOM+99be6/o24339Lp3e3E7uPMAVtd10nhZjcbLOt27GXx0TP9D2Tf/izL2g+ADveXSSmQka+9d7XQNBLd10Gio0Wio0cgqFXx4TB8XbdnBjeMou0Hg0lJEicyEyx7YvLXZvuKRhHYz/lJtZXYjvTOaqzt6d8+SMgn12gUAAAAY1GwGgx9XvIzgk4olntWkw7dHq6z9NzOStad3u0eCcyf3lhsESpb2snsTD8SupdWIYlZKe9lTL4Bt6DTrtVzm/Z4ZyNWd7yklKfPm9cq8AgAA4OqNEQzeVyn9WtuYvjteNq9T5/i/g/QHKs3st9n/oVz6P7WPM4xnlSv/j9Ye5f3/5D32/2i3mdzJ/P/axiXG9y/2b8m9pV1bsm4nNLlQsKzcftrtnund4ul95fztm0u3HktkJCmjRGCMXbxXF8VLbL+wJyuV1WnjRDvbkeDDM+rRtpm0rYOTA+34+givbh/IjQcLOu1Z7LZe3bMke1dv9YoYPW62Nk4WEQAAAF2NGAx+pJ8svaw7mU8HGNN3XyfxzvF/55kf607kHZWaG8ofXASLiRNv46f6MOKbQCb+gYbojDmi3yi99P8okXnQ3i3Q/rUSEbtnxmZQufczkizdTkwuFMylI0rsZtrqa2d2lbgsWpiU7R2dHGxPMLidvkfeZmNYTdyWJSnzfr+65vR+xna7npJFBAAAQBcjBYOl9A9VkNxunNm3W+P5bnfpH/hg/6/0oe3u+3xz39NXFJMknejORGYenaDcr+UmOG8qlXXHGTYaL+v09P9UyrrosLq68395j/177VnextT/2dq/0XhZJzv/srW/q6zTgiTrtiYXC+b0fkZSak+nrTFzDZ1m95SK+nbbPmg95mafUsr69m80Gjq5Jt1WLzerbebV67LrYzWh25akwmmfIG9bL6QsSZZS35tkFhoAAADXxQjB4EcqtiZ3+Q96cfuJ4A4+91W686nk7Rtv7rv6rL6y96T7/8J9N9u3+g2lmxPFZOPe3z+p508vJo95/eQbVzh+8IEyb+Zb3QZXV/9AByfrGmX+mgsfq2hLikUm/+U8c0dZXx/H1e0dHeyMV9trb8baLJdOKCNLe+/uXHJ9rCoSk2QX9XHwIZ/tgxM1Gic6uOrpagEAADAXhg8Gy/db3T1vRfoFgpJU1bnXD+989+W29QJ/tOsGibIrV9D1cwjb1kWmz/4vSkS88X/pi8BwtmzrIJuSJVu7iYi3PEFg7BsCZq/Ncum4EhkplT3pMcMsAAAAMFnDB4PX3r/Uzsm/12n23yrVDAol2Zn/okTkP83mZBzbBzppnLrdHC1bmd1dJSJLis9kZWfEzLRZWbn0khIZW6nsqQ4eXWISAAAAC2aCweB9PXAHEvqEdcsLqG7tXYwtbL99R2vBP3vk/qVWt9d1cOKOCTzd+5K3/YEy7w++sHynpxW9dKzXqFbdbo4nDTUap9qzJDvzpnpPdtlvxspF8ajbrKz9eMTLCDaG6M7ZHHsa1dPBhwAAAIABDR8Mrj6rmBfgFd5szu7pzhjqThTj94TWbrtjA893/0o/yd0P7jBzyvtZxdO/Ubn1pf9fajVxU74kYcC/dMdvSVLm15d0NWyO9bqjbN/9hlDeVzq9r9xFhSWtKnHbkmSr2GVQ2dNR97E72dwUgtLBuUsfPIJs3Ey0mRsI7tqWFwgGH++jnNWdAcaesrQEAAAA+rlx7969z4Mbm0zTDG6SJD3Yf+1izJ/PLetJndufSqlX9PrBs97Wj/ST+A9V6AgUXbf23lZ6JzD2MPeOt7zEk3r+9C8V7/eNdwDl/f+kyG6fkYnWv9XpybpWL933pvZO/6/OMV25rJYSvw5slKy9f985o2guraVERtbeae+ZKL19emn72/K+4pHd9mUwWlLKNg46J73pUX7fOvXTo7wWa0+nJ8FJUXJKLyW8mVst7Z2OOVbukjrMWpuV9+OKtBao7KJrm7maf9s/iPS1b5+yAAAAsLiGzwxKurnzl/r2Xly3WlvcJSbS3+sWPD6rF0/e1u3Uk779Z9fqzv9H2b0vyWpLBd6Ulfq3ynYLBCVpO6HTjr/pYftVtzvi7ltjr1koSVrd0bvZVOC5LW8R+C5Bjdzxcqcdf3PV3ElcHom5bTNJKit7x5asPb3ataJNLC0BAACA/kbKDGJMg2QHF0A5l9ZLiYzsXtk4dBgsKwgAAABcbqTMIMa0faBsSrJ3X+ozWcn1lUsvaWlpSZFERrakVJZAcCDlfb20a0upLIEgAAAAxkYw+IhsH2SVkq3dSPqSSWeuWk7pJTdYu/yWHqurq2WllD29DhmuK2izck7pyK5sa0+n899gAAAAmAEEg4/Mtg4aWXctwwXrKbp90FCj0dDJyYEGXk1h0a1KslLKMhEMAAAAJoQxgwAAAACwgMgMAgAAAMACIhgEAAAAgAVEMAgAAAAAC4hgENdYTun4iLN3zrVFPW4AAAAMg2AQ11RZ+/GEMrakjqU7uiwFkb5GoVNZkp1RYtRlLAAAALAQCAYnoLwfV3wqX7zLyqXjii8taSm+3xnTLIgH+6/pYOkdlYIP9JFLR7RrW9o7vfrlKx759bC6rYPTPVnKKHGdglwAAABMFMHgBHxctGUHN46j7H7pX1qKKJGZcNlz6EHxU50HN/aTSyuRkay9d7XTNRDc1kHDXeuw0cgqFXx4TDNxPazu6N09S8okRDwIAACAbggGZ1DuLfdLv2RpL7s38WDleitr/82MZO3p3e6R4NwZ9XpY3fmeUpIyb/bJIgIAAGBhLVAwWFZuP+12sfNu8fS+cl2/JQf3jSuezrV/oc6lW+UkMpKUUSIwDi2+37XwS22/sCcrldVp40Q725HgwzPqvkr77+hg6Zt6w7sdpD9QqWsTBPd9TQfpj/TAv0vunVY5dzKSdKI7vrLfWPqmDvbv+//C+7u3tGtL1u2EJhcKBq+HLtfOTF4P23p1z5LsXb1FdhAAAAABCxMM5tIRJXYzbV3s7MyuEl2+JXfua8vOJBTpN05rkrZ3dHKwPcFgZvpK6Zd1Z/ekrTvneebHuvPWR74trs59P9V55of6UfyD9oBwBLn3M5Is3U5MrvU6r4fe185UjHE9rCZuy5KUef+K6goAAIC5sSDBYE7vZySl9nTaGivW0Gl2T6locFd3vJlSWd++p8qmAhmW7YNWOdmUJKWU9ZXdaDR0MmPdFHPp9kxVx23kYPcjFTOSUt/Stxvv6XXv9u3stxTraN933Exf6hXfvm/rdupJyf6xft5q3++0yrmdkqS4bvvKfr3xntI7T7SXrbJOC5Ks25pcLDjgtTOr18NqQrctSYXTEc8tAAAArqsFCQY9mTvK+vr2rW7v6GBnu20XN7OUUrYtE7Oq7QNv/BUZlt4y/6hS7qLr5s3tb+jFnWfbdim9f+IGdgfP6mZr6xNaO0gqJqnwfmcmcXAfq2hLikVGyqL1NcC1M5tWFYlJsov6OPgQAAAAFtqCBIPbOsimZMnWbiKipaW40vvdxgt6maUu472WlhLKaL4zLNsH7ZmqjtvJzohB1LN6MRvXLX2qDxMv642l1/ST/W7jBe/rQUFdx/+9sfRDFSSpcH/srqKTNei1AwAAAMyXBQkG3W58J41Tt3ufZSuzu6tEZElx5t2fjO3vKN142+0aan2qwu6PdSfyTR2kx8n0zQiuHQAAAFxDixMMSpJW3e59Jw01GqfasyQ786YuJnn0utRZ7ePDBsueFXQ649mi6Y0ZbHrC7Rp64o4DfN6SzjOHOmkV+oRuxiRZ7WML224n3/B1H/Wr6MGllXta0amNj7vs2gmaleuhOY4yqqeDDwEAAGChLUYwWN5XOr2vXNn/7XxViduWJFtF32Cqp6PuRDEvpXNq272Pp6NuOXeygeUnFkX5A/0k/YFKZf9SD09o7faT7kyhvva9GXUnijlMfzRAcOe6GXXLKWQDy090aI6Pu6PsgGVfaohrp2mmrodyVnemNY4SAAAAc+3GvXv3Pg9ubDJNM7hpPpX3FY/sti0NcCGlbONAF1OBlLUfj2i3+85KZRs6CM4bkktryV1cro21dzraDJI9ymux9nTaM0P5CJQ/0EHkx23LSlyI63bjO1pr3b+vk/jL+rBH+8ay7+nFjvZ9R28kTgIbpVt7b3fOKOq1Xd+2v6R92/52qGvH06P8vnXqp0d5LX2uh/J+XJFdu/t1CwAAgIW2GJnB1R29m03JsvwbLW8h7+CX+VXtnLhLSbTt3s/2gU47yl8gq99QMhvXrbbjf1K3Uq/o222BoCQ9ofiJu5TErbbtfWx/R9/uKL+H7VfdLpy7b2kiI/qGunY8M3M9lJW9Y0vWnl7tWlEAAAAsssXIDGKxDJIdXABkBQEAANDPYmQGsVi2D5RNSfbuS30meLnmyvt6adeWUlkCQQAAAHRFMDh1OaWDs3b2vKUn07UR2j7IKiVbu5H0jK0JeAXXQzmndGRXtrWnUyJBAAAA9EAwiGtqWweNrFKW1HVmletsVZKVUrbHpDIAAACAGDMIAAAAAIuJzCAAAAAALCCCQQAAAABYQASDAAAAALCACAZnXHk/rqWlJcXTI80rCQAAAABdLWAweF+l/Xd0sPRNveG7/WQmY62ysndsSZKdeX+0ZQZ6KO2/pjeWvqmD9Ad6EHxwqrosrUCgCwAAAFy5hQsGS+mXdWf3ROfBB2bSqhK3LUmSlXpBk1sx7iMVdz+VJJ1n/lGlmVqHbzzl/bjio67P10s5p/20m6F1b3GlF3Y1ewAAAFwXixUMlj/QzzLuf2/tvaJvN97T697txclFWhO1unOiRqOhk4kuHv6sontPSpJupf6N1q50MbptHTQaajQaajSySgUfHtPHRVtuLnVCyvuKRxLazfhLtZXZjZDRBAAAwFxbrGDw44qXEXxSscSzuhl8fIGs7fylXm+8p/TBNxa6HS61GlHMSmkve+oFsA2dZr0QdsJddwEAAICrtFjB4KDKH+kk/VrbuMKD+Dud3Slz77iPxz/QA91XKe2Owxt/LN6UxtU169t2e0el4H6SSmnvOPbv60HOP8byNf1k/35w9ykqK7efVtzXFvH0vnL+c5FLtx5LZCQpo0Sg/eIjd+vc1sHJgXa2L9Knq9sHcuPBgk57FJtLx93upBM4bQAAAMA0XP9gsPzBRSCTOPE2fqoPI76AKO4L3Mof6CDyQ32Y+bRtXOG5faI7kde6TzRjV/Tz9Mu6k3HH4UnSeebH+lH6o7bd5tH57sv6UcI/xvJTFXZf7t4OU5BLR5TYzbR1/bQzu0q8dUUVGElO72dstzvpm/vqES8CAAAAj9T1DwaHcl8nL/3YC3ziun3qjSk8fUUxyQ2E3uyW8TtRISPFsm/r9cZ7+rY3Hk+ZfNes2+WmNK5u+zutMZKtOg7C+pbXFs12kArvX0Wgm9P7GUmpPZ222qOh0+yeUlHfbtsHrcfcjF1KWd/+jUZDJzuTHBjp1cu6rUTXYrf1QsqSZCn1vYS67gIAAAA8Ytc/GFz9htLNiWKycW/jk3q+Geg13tPrJ964ufJHKngpqFt7L15MrLL6rF5s/q3dffbNW3tv68XtJyRJNyOmt7WiB132nS9x3T75htcWzyo6sch0CJk7yvr6ha5u7+hgZ5IT6gwnl04oI0t77+70DPS2D07UaJzowNe9FAAAAJgl1z8YHEbbBDNuYNfytKlbkqRPdf5x+0Md+7cycH+p+LzHApb5CCeY2dZBNiVLtnYTEW9Jh8B4wSuWS8eVyEip7IkmmmwEAAAArhjBIGbb9oFOGqdu11DLVmZ3V4nIkuJXPjNLWbn0khIZW6nsqSa60gcAAADwCBAM+vXJ/j3I/mMra3jr6fbHMG2rbtfQk4YajVPtWZKdeVO9JwjtPcvnaMraj0e8jGCDrp8AAAC4FggG/VafVcxy/1tI+JaSKH+kn+96M4VaV71I+wIr7yud3leu7I/sVpW4bUmyVezoris9HXUfu5PNTWgWTzcQ3LUtLxAMPt4dS0sAAABg1hEMtnlC8e/Fvezgie40l5+I/FAFyZ145t0rWKTdt27e0lJC7tJ5ibHXzHuwf7EO4o+awa1OdKfbEhvTMuSxFTK7SkQibWsGRnZtSSm90CUwW424853auwlFJrDOYHn/Je3acpeJSLSvXbi0tKSleLelI1haAgAAALOPYDBo+ztKn76imOVfeuFJ3Up9S7dPr8GEMPNkdUfvZlOyvGyty5KVyuq0caAusaC0faDTjr+5aiwtAQAAgNl34969e58HNzaZZnOJBAAAAADAdUJmEAAAAAAWEMEgFkhO6eCYv563tJj7BQAAANcZwSAAAAAALCDGDAIAAADAAiIzCAAAAAALiGAQAAAAABYQwSAAAAAALCCCQVyqvB/X0tKS4mnm1wQAAACuC4LBGVfaf01vLH1TB+kP9CD4YIf7Ku2/o4Olb+oN3+0nY8VwZWXv2JIkO/P+RJdbGO7YAAAAAEwSweBM+0jF3U8lSeeZf1SpHHy8XSn9su7snug8+MBYVpW4bUmSrNQL2g4+PLLhjm2elPfjik9lncKycum44ktLWorv6xo1GQAAAB4BgsGZ9qyie09Kkm6l/o3WVoOP+5Q/0M8y7n9v7b2ibzfe0+ve7cUxI7jVnRM1Gg2dHIxZUJshjm3OfFy05eZSJ6TsBoFLSxElMhMuGwAAAAuLYHDGre38pV5vvKf0wTd0M/ig38cVLyP4pGKJZ/vvOyMGPrYFl3vLDQIlS3vZPaWCOwAAAAAjIBicRbl32sb8ubd3VAruN1U5pZeWtOS/TWICmSGOrZR2Hz/Yv68HOf9YyNf0k/37wd2HVFZuP+12ufRu8fS+cl37Xgb3jSuezrV308ylW+UkMpKUUSLQfvH9roVfavuFPVmprE4bJ9rZjgQf7snNJsY1idMGAACA64dgcJ6VP7gIkBIn3sZP9WHEF2jF539ylvPdl/WjhH8s5Kcq7L481sQ4uXREid1MW5dLO7OrxFudhXbua8vOJBS5qnF72zs6OdjWcD1pc3o/Y0uylXnziuoJAACAuUIwOIu2v9Ma7/dtb1zd1dvWQaOhRqOhRiM7ua6Jox6b9S3dPn1PrzdeUczbVHj/o8BOg8rp/Yyk1J5OW8fY0Gl2T6locNe0m+lLZX37niqbsiR7V63YcfugVU42JUkpZX1lNxoNnewMF86NZ1svpCxJllLfSwwZSAIAAGAREAzOs9VvKN2cKCYb9zY+qedPLyaPef3kOozHi+v2yTe8SWaeVXRSkWnmjrK+fqGr2zs62GmfJCfnRo3KtmXmVrV98D2lJGXe78wkzortgxM1Gic62CYUBAAAQCeCQcw+y5xwQLutg2xKlmztJiLuuLr9buMFyzotqOv4v6WlhDKSVDilCyYAAADmEsEgFtP2gU4ap27XUMtWZndXiciS4sy2AgAAgAVBMIgFtup2DT1xxwHuWZKdeVMXk36uKhKTZLWPLWy7nez0GI9X0CkpQwAAAMwwgkEsnvK+0ul95cr+aG1ViduWJFvFjy+2Ph11J4p5KZ1T2+59PB11y7mTDSw/ccVYWgIAAAD9EAzOoAf7r7WWhvjR7qfe1hPducrlInzr5rXGx2USY6+ZNxPHJqmQ2VUiEmkbBxjZtSWl9IJvDpnVnXe9jGFCkUhw3OBS10BrNeLOd2rvJhSZwDqDXc+FvXtRdtclLlhaAgAAAP0RDGLxrO7o3WxKluXfaHkLux+ofT7RVe2cuEtJtO3ez/aBTjvKv2osLQEAAID+bty7d+/z4MYm0zSDmwAAAAAA1wCZQQAAAABYQASDwJXKKR0Yd9j7llaXIYkAAADARBAMAgAAAMACYswgAAAAACwgMoMAAAAAsIAIBgEAAABgAREMAgAAAMACIhgEAAAAgAVEMAgAAAAAC4jZRDHzHuQ+0M/f/EcVYkm9fvBs8OH5k3tHbyROgls7xLLv6cXt4FYAAABgMsgMYsbdV+nNH6tgfxp8AAAAAMAYyAxixt3XSfxlfWhLSr1yPTKDbXzHZ31L3z75hm4GdwEAAACmgMwgxpd7R28sfVNvxD/QA91XKf2ae3/pmzpIf6AHwf11X6X9d3Tg7dPcr1S+2OPBfrMML1CSpMwPW/u/sfRNHezfb+1fSnvb4+3P19qe/uhi4xD1bf79wf59Pcj56/yafuJ7/qkaob4DtYM00LkAAADA9UQwiMmxK/p5+mXdyVx06TzP/Fg/agtA3EzYnd0Tnfu2nmd+rDuRd1TybZu6gerrbd99WT9K+Ov8qQq7L+snubbdpmuI+g5mhs4FAAAArhzBICboRIWMFMu+rdcb7+nbe0+6mzP5VmDxYP+vvEzfk3re2+/101cU8/7+jhfY3Nz5S/exxtt63vL+OPWKt829pXee8B4Y1eX1bWN9S7dP39PrjWZ9pcL7owZioxiyvpcY9FwAAADgeiIYxETd2ntbL267QdrNSHPMaUUPynK7JN5xs1q39v6D4t5+Wn1WX2kGNoX7XbqVTk//+vrFdfvkG1pblaRnFU0FH78ag9f3MrN3LgAAAHC1CAYxQU8qlvBl67a/42Xx/lLxVUmq6twb/3e++3JrjNobS9/Uj3a9ro925QoDkMvq62OZMzCxyxD1vdSsnQsAAABcNYJBAAAAAFhABIO4QmHd8sb/3drzxqh13L6jteCfjewjFTPBbYuoWztc9bkAAADArCEYxBV6Qmu33fFo57t/pZ/kBlma4QndbM7Wksn3XPLgZtQb52Z74+fKH+kk/kMVgjtec4O3wyjnAgAAANcJwSCu1M2dpGKW3KUZEu1j1d4IrB3YtPZC3Pvfie5Euu97M/FvdMu/T+SH+tCWbllecLQghmmHUc4FAAAArg+CQVyxZ/Xiydu6nXrSC1oGsP0dfXsv3urW2NXqN5TMxn1lPqnY3ttKf6854+aCGKodRjgXAAAAuDZu3Lt37/PgxibT7PYFEgAAAAAw78gMAgAAAMACIhgEAAAAgAVEMAgAAAAAC4hgEAAAAAAWEMEgAAAAACwggkEAAAAAWEAEgwAAAACwgAgGAQAAAGABseg8rlb5Ax1Efqzzto1x3W58R2tt2wAAAABME8HgBDzIfaCfv/mPKsSSev3g2eDD86lr0HYhln1PL24Htw6ga7kEgwAAAMBVo5vo2O6r9OaPVbA/DT6Abla/oXTjPb3eeE/f3nsy+CgAAACAK0IwiEvFsm7w5r+NlBUEAAAAMDMWo5to7h29kTiRrG/p2yfP6kH6r3Qn42bybqW+peTBN3Sz7Q/uq7T/E/1s96TVnfFW6lt67tVvaG3Vvf9g/zX9aLd/NvDW3ttK7zwhSSqlv6k7GXl1uHi+1vbUKxddTIeob/Pvb+29rWTkJzpMNOv8pGJ7/0Eves8/NF93zkG6hLa6yvoypLesuGLvfkdxr82CLtqwXzfR+yql/0o/y3x60bXUiuv2uy9qbTV4bJefNwAAAACuxcoM2hX9PP1yK7CSpPPMj/Wj9Ee+ne7rJP6y7vgCiuZ+dyLvqOTbNnUD1dfbvvuyftQKBCXpUxV2X9ZPcm27TUf5Ax0mOrvKntsn+jDymk7KbZuH8JF+suQef9sYQ/tEdyI/CZyLGTpvAAAAwBxYrGBQJypkpFj27fYxa5l8K1h4sP9X+tCWpCf1vLff66evKOb9/R0vELu585del8m39bzl/XHqlbaulM2s4Ogur28b61u6ffqeXm806ysV3u8MHKfhVupbun3qtVfjPb1++i3dktygNHs/uPtgcnkVJDfL6euq+u3TVxSz2rPWg543AAAAAK4FCwbd7pQvbrtB2s1IM6Co6EFZbjfDO153zL3/oLi3n1af1VeagVjhvh54f3UV+tfXL67bJ83ukM8qmgo+PrpC4pt6Y8l/C2T7Vr+hFw++0d5tc/VZxbwg+bxYvdg+kk9VePMDlbznvLn6rF48+YavW+nsnTcAAABg1i1YMPikYglfwLL9HS/b9JfeuLaqzm33ofPdl9sCoNb4QLtyhUHFZfX1sczAuMer9aD8kX4Sf00HrTZ72cvUjWH7xYusq/1j3Ym4ZR+kLwJD16ydNwAAAGD2LVgwiFF0ziYaCEZz7+hHkR+qYAfG9o3tCcVP3ta3s99qZRnVGgf42tWMhwQAAACuKYLBNmHd8oKOW3u+8W9tt16zXo7iIxUzwW3z5r5O3jxx/9sas/he+1jKsTyhm9vf0Isnbpnf3ot72z/1jYe86vMGAAAAzD+CwTZPaO22O8bsfPev9JPcIBOfPKGbzdlaMvlA98ULN6Pe2DXbG+9X/kgn8R96E6RcEzHp5qq8JR6aE7qM7sH+OzpIf+QbH/mEbiZMb2Iav1HOGwAAALDYCAYDbu4kvS6Jn6qQaB9/9sbSN3Ww3xlorL3QzFadtMa1Bfe9mfg3XhDj7RP5oT60pVuWFyTOLX8w/GP9yBsveKfHGowP9l/rHM+nE91ptnH8A9/YvorOMz/Uj3xt+oa39qH0pJ5/1VuXccTzBgAAACwygsEOz+rFk7d1O/VklwxUD9vf0bf34q2uil2tfkPJbNxX5pOK7b2t9Pfal0iYR2sHbntdeFKxvVculsIY0c2d/6DbHe36pLeMRXASnRHOGwAAALDAbty7d+/z4MYm05z/QAUAAAAA0InMIAAAAAAsIIJBAAAAAFhABIMAAAAAsIAIBgEAAABgAREMAgAAAMACIhgEAAAAgAVEMAgAAAAAC4hgEAAAAAAWEMEgAAAAACwggkEAAAAAWEAEgwAAAACwgAgGAQAAAGABEQwCAAAAwAIiGAQAAACABUQwCAAAAAALiGAQAAAAABYQwSAAAAAALCCCQQAAAABYQASDAAAAALCACAYBAAAAYAERDAIAAADAAiIYBAAAAIAFRDAIAAAAAAuIYBAAAAAAFhDBIAAAAAAsIIJBAAAAAFhABIMAAAAAsIAIBgEAAABgAREMAgAAAMACIhgEAAAAgAVEMAgAmDlO6ViHh4c6zleDD10jVeWP87rOR9jdoh73PJjUuZlUOQCmjWAwoPkF5Mq+f1TzV/t8ADDzHFUrNUlSrXJ2Tb9QOiod26rUJDnBx66AU9Lx4SP6su5IqlVkP6rnRw8TvCY5x8DcWPrud7/7F8GNTYZhBDe1cUrH+ukv/6fM1Zt6XFI1f6i//9VjrfvDcVQ6/ql+9suiHCOqlWXfQ9W8Dv/+ropFR0Z0Rf6HhuGUjvXznz3QF/qU8dmDT1Q+fyjDDNRhWpyqimf1q3u+WeBUVfpvef3s7i9VLBZVLFblPHZLKzeHv2oAzIdB3n8vPK7H/2fVey/+I/3rmX5zdFTN/1z5u7/UL4tFFYtFVZ3H9AXjppb7vKVV8z/Vfz03FNv6ip4KBR+dlqpKx7/Sw1srWg491INiXcvRFS07VeV/fl/GSJ/dI3h8WSvmY6qWf6PfOIaiM31+59E0r0lf2dU+3/c4x8DcGCszWK/VpOWQ3PcMR05dvvvDqqvm/hCsyln770jVs0rb/VHVazV5T4FHxSnp+MhWwfvV31VTpXCkQ9KjwLU17PtvaG1TyWRSm+vh4EMzxFHp+Eh2pf3YapWC7KM+GZFqXnZFMmIbWhvtA3M0jlRTRfbRsUpVRzIMqZrX8ZGtimqqj5sNGkZoTRsxQ6rY9IyZqCldk46jav5Yh4edZffEOQbmwhjBoBv8GUbz156LYG4cpmlKbd2CqjqrGDLN/llKzIlQSMuGqZi1pWQyqWQyqS3LdB+7tt3BAFxHTumuCjVJRkzWlvt+lkxuyX1Lq8ju+g3YUalYkYyYNrp+656iUFjrm0ltWcuq2AVVagXZxbqWrS0lN9cVvurqrEVlSqoUS2P3SoRrWtdktegGgZKhmBWT96l9Kc4xMPtu3Lt37/PgxibT7PZyryp/aOvSXJ1pKTnUL7puubIsybYlK6n1sNdFtGjIMiuyC8uykuu6KNVRtVRUsVDxfqUyZJhRbayHL7KT1bwO7f61NWJb2vTeAJ3SsY4KNZlWUlEnr7vNsg1TsY31Lr+YOarm76ro+6XMMExFN7p9sHr1rVQ6AmezebwLqpo/lF0xFNva7NLGAObSkO+/XT9fun2WOCUdHxW0bCW1cnbsfkk1YtraDKuav6tCpSbDtAJZxQE+L4bSrKsZ+FxSKztTqHV5zGuT9uNu534OSbGtDYWqvjr3/BwajlMtqVgsuGPDDFOxaFRrnR9YgxnpXFzwf+b22GUIwXMsGWZM0eha2+fxRftuKlwd4HPeqapULKoy0Of8xf4XPWAMmbENrXcWPDfXpKolHZ+FvLp5z2PEtLW5dmldJ3uOAUzaGJnBCXMc1SVJYa2YF11Fq2cVGWZY4dCypLoc309L1fyRbN+bvlRTrWLr6HjcX6AM1YvHOvKXXauo0NHFokd3jJrXDaetEs5FfQOBIABgePWiF3zIfY8uesGHe7fY9h488c+L6pkqkoxYNPClW5JCCpuGpIoCox68YQ+GzK5RhF9NlbuBOnf9HBqCU1X++FBHdkWKxmTKlBWVKvaRDo/zqo7UEK5hzoVfKGzK6DI8ZBSd59jrHlnsXnbl7mGXz/nOz+7SXXdoQ+fnfJdz0XMoxN2ONuis7wxfk+E1bY4YpE7yHAOYvBEmkFnWSjSqaNSQUzyTYSX1tY2oouZjqpbPdat5f9jBwp890Cflcz1uRvWHy46KZzdkrj5U+a6jW8/8oW4+rKp49lC3/mBVN93ZavT3/1yXTEtbX9vQM9GoolFThvNAZ+cVfdachGZ5RdFoVNFoVIZT1FndlJX8mja8bdFoVKu+iUvcCWRqevjwoQzT0nNf29AzUVOGU9ZZva4bvsltnNLPZVceut0xnvuKNp7x1aFe0/lnvkHT1f/m1rdt36hMw1F50SaQ6VDVr+6eqW48rWf+sMdgdADzZ8j334vPl4vPmLphdn6eeJ8XtYcPZcS29PXVz1Q8O1e9/lCmlZT1e1WVz2t6/Jb3vjro58UwvMm/bq0+0/VvH3/4oMvkYI7u/6qs8y/0f69rTmT28KEu/RwayuOOqg9+T39kresPH3+gX5Uf6n/bWNe/Ng05Zze00qdOPQ17LoIef1z/s1rW+cPf6z0ZyUC8zxEzpq2vfcU7x1GZxmP67MbjWrl58eQXn/OB9n3sgc7Oa3r4L0zfdfmZHjz4TLf+yNJXNp7xrs1e58JR6ee2Km3levs/Vtdnyyvu9xfN3zXZzlG1eKb6F27pDwY5ZxM7xwCmYYRg0OPc16/KD3Xrj7zg7EFZvzy7of+9eX9YvmBwJXxDzi/L+uyxh/rNw1vuG5TTHgxWf3XX/WLxtT/UzVYhj2t55Qtyimeq3OicvcqpFnVWN2T2mc2u+SEs09LX18Pem9bjWr7hqHhW143fa35IOPrvv/xnnT80ZX39XyvcOubHtbxyS49Vyzo/v+HNfuqolP+vXfaVd1zBN+fhOKVj/fRnzZk5L27Vx/wfaNPddxzV/N/rn+uGYs+tt7UNRjPMeWPf2dn3uhvk/bed94WzTzD40IjpufVw631URkzWv76pUOBL7yifF5dx7v+q/8zTXp0uPjMk6YHKvzxT/daqnun6R67BP4eGtayVFW9Gyc8e6JPyQ/1v0RUtP76slVG/pA95Ljo9rocPijo7f1y3Br42uvGul/pD/Qvjlm5602Y+vnyzLRCUf9bw2JY2/3XzuB/X8k33ejh/+C98Qcvjurmy0irPdXEu2o7L+e/65T+f62HbefP2v+kLBDV/12S7IYPBiZ1jANMwdDdRx1uH7/CooJpqKhwduvftitS6H+xmMaywVsyaCgW3i+hFt4SaanVJzZlLVZF96D1/6+aNN6k7o3Wz8JgrnZ0s2nkT5pgrXbtjhJbdffzdWmUYvAkGVPPHsiuSaTFWEMBw2j8fOu+7pvN5EXLf5C+1HOqs0aAu/xwaQ2hNm8GxY2MItn3w/vSFtW6ZMlRTwT7S4eGx8qVS366vnedmWV1/A3eqyh97332at25jYetuV9LLz9v8XpMArp+hJ5BpDgTub4SJQKp5Hdr1i7/rer/iDUBuDoQOFuLTZWCzO0lJl8HTPj0HOncMsPYGUHeb3KD1XM126DPYuu24/A9cd94YyopkWlta7zdWAcDcG+T9t12f91hv0hI134+D788T+Ly4VPA5A7p/lvQ5Jp/uf3v5cz4SQ52L4B+7hr82+nHkVKsXE+TI7bLpn8CmZ/s2J1mR73rwjq/X5eMvo3e5QfN3Tbbr852mh8meYwCTNHRmsLn201bMkGTK8pYHsEzvzSuZVDI5ZCDYTXi9Tzle5q31fF1uPd+gAtm6cXVdDqH5q9+y3B/gvF8bazVvkpwLk1pDcb40J95pfpB2P1MArpsJv/8OZJzPiz6WDRmSapVqlwxOVcVCTZKp9iSR91kwQtbn+vI+LyfWcyakUHhN65vukgoxo/8ENm2cqhtA+tZLrhbdQNCIWe3XT3NJJJ9mZq5+6UW+aNfkpM8xgEkaOhhsqrdNidkMfq7OsmFItYLu5qsDf7lYdiMyVard3iiH5c562ly356I8d6kJ9z232YW02W20omLzE8mpqnR8qG49Ta635i+ixgC/ngK4Lib7/jucUT4vLhVaU9SUVCvoyP8Z4FRVOna7+nXO6uh9FtQqfbsvLpQuAdhInJLy+ZKqbSe4OYNmc4hJkG9fp6r8XTfw69bNczm03KqfUy0pX+zy4R1ekXtJHOm4FPheUMq3BaQLdU1O6hwDmIqhu4k2VfOHsuvNLgLeF/zlYboZtHO7L7jr/nTNBga7olzSzaJroNFjzate6wxe3j2ny5pYTYYpa9PXHaJHVxPDNKVKRcvB57umLu1mPES3EwBzZID33177NLX2DX4eBN+fO7omjvB5MYge7+tSn/eyYF27GO5z6BEb+lwE/7zHsQ6r37kIrLvX93Mo0F2y777drp2e13Bw+Mx8XZO9j8vTq+xJnmMAUzFiZjCYCfQmU7lSIa1tbsky3W4RAwmva8syuw8QH0lY61uWYqa/QEOGaWnLHwjKG6xvxS6e2zBkWlvajE6sMgAwuyb+/juMET4vBhFa02aXzwAzZvX8Yqxw1O26WCh2GWKwaBxVvUXqo+MGCaE1bXRcX97n8SDj1AzvvAWildDaprZi7jp53o5umVas+7UUXteWFZPZVhF30fn2OGtRrskJnmMAUzFyZhAAAIxgkEzMAnhUGaNH9bwzbUrXJG0NzL4RM4MAAGAk4XVZplQr3B1sYpPryCnpbqEmmRZBwiyYxjXJOQbmAsEgAABXLLxuyVRNhaP89CbumFVOVfmjgmpGrKNbJh6diV6TnGNgbhAMAgBw5cJaT1oyDan7QK5rLCRvkrUeY9jwiEzwmuQcA3ODMYMAAAAAsIDIDAIAAADAAiIYBAAAAIAFRDAIAAAAAAuIYPBaqip/nJ/C4rG4frhWAAAAFtV8TCDjLYY6qUVLnWped4sV1WoX20Yru6r8oa2Kf5NpKTl8QRPkqHR8pELNlLW1rnDbNF6zWN9Zd83bzKkqf2SrIlNWcl3X5KgAAAAwgLEyg07pWIfHJTWXo6nmD9vuzyKndKwjuz0QnFVO6VjHh8Nlbar5IxVqhmIdgeD0jVLfwTiq5o91fDj719ewptJmTlWl/LEODw+927HyvVYRDoW1vhWToYrs/ERrAQAAgBk3VjBYr9Wk5ZC3howjpy7f/VnkqFqpSTIUs7aUTCZbt9ESPWGtt8qwNOk8ar1W01AxazUvuyIZsQ2tdT0JM1bfyzhuEHh4eCS7MuGyBzZvbVbS8ZGtQsVfak2VwpEOewV7oTVtxAypYqvXLgAAALh+xggG3eDPMJa9+/U5yLZ5dTSjWrvqtNnUOSoVK5IR00b3SHDuVItuEOgG77GJB2LXUiikZcNs+7Fjy/JarnLWMwMZWovKlFQpXq/MKwAAAHobYcxglzFU3Yw8rspRtVRUsdLZlbNzXJ+3b6HiZVcMGWZUG+vhHtlJr+4j162fQcoO1lcyzJii0bWLLp3e+Mh+jNiWNoMBn/d3XR/r6hHXdxDVko7PQt759OprxLS1udbj/E7bHLRZD9X8oeyKodjWZo+ssdeFulDr8jprV80fy65IprXZdz8AAADMtjEyg9PgqJo/kl3oDAS7ae3b2lJTrWLryD+uzCm5Y80OD3XYDGIrtm881dWNQ+usr1SrFGQXe+VrBlc9q0gyZE4w4znN+g4kvKbNnoH9bHrkbTaGUNiUIaly1q+uVZ1Vam7XU7KIAAAAc22EzGCTmyVRM4vglHR8VNDyJVmFvpoZEyMma+Mik+JU8zoKziba3Ne0tNUKGBxV83dlV3zZDa9efWPLiWSbLssaNR+PaWv94rmcaklFJ6T1tc6/cbM5g8zy6M0gqmGO41HWdxTzkBmctTZrGrTtBruOLjKDG1qf4I8PAAAAuFqjZwYdR3UZuhgyWFPNf39o3pg3mbI2fV3qpK5fSt1MmCmrLXMUUnjdG/vUzG6E1rQZnADEtNomj0n2+eI7cZWKqtWLfEoovNY1SBiONxZyGpP3TKW+19yMtVk1b6siQ7GNy67zkELLkmo11YMP+YTXN5VMbhIIAgAAzLmhg0Gn5E1Zf1RQTTUVjryulnZFat0/Vq+Z7C9lGLo8nvRmLlVFtr+7p78raN2ZsS5sYa1bpgzVVLCPvOn+S/LFDDNm3uo7C2avzfzj+3qNFQQAAMBiGjoYnJ55mI10TOF1bSa3tGXFZBo1VQoF2UeHOp7V+fznrb6zYGbazPG6oNZkWlujd90GAADAtTV0MBha23Snq48ZbjdNr6ulZXpj75JJJZOjZCGWZRjdu6i5XUL9vO5srefrcrvKrp9DCbndBjeTSia3FDOkWqXYJ5Nal9PzsSav7aaSDZ1Gfa+7R91m7tg/NyOYHKI7p5dxHyg7DwAAgHk3dDDYVG9L4zW7bY7DC/BUUbH5rdmpqnR8qG6z8C8bhlQr6G6+OuEv0lPilJTPl1Rtq2xIYdNwZ0Ht0n7LbnSsSrV6SZDXHOtVmVyXxKnWd7rcheofQTZuJtrMmwSmZly6REQHp6rKAGNP3fY9ZoF6AACAOTfybKLV/KHsenPWQe8L6HKvWRYH1GPmT8M0pUolMFNp80tv+75N3b8IXzYb5JAuWS+uba24Hsfm6jGbZI/yu65BN8g6gz3Ka7rS+g6iR3ktXWfH9K+D2X9dvYFcUodZa7PmWoE9dW0z12DrDPrat09ZAAAAmH0jZgaDmcAJjfcLrWnTirldHuV2VzOtLW1Gmxv8Qlrb3JJlGur26MwJrWnDMi+OTZJkyDAtbXULEuSOP9vq+JsewlG3O2KhqIkkbKZd36lxJ3F5JOa2zSTJUbVSk4yYol0r2hTWimlIMmRG52sNSAAAALQbOTOIGTRIdnABONW87toV1Xpl49BhsKwgAAAArpMRM4OYSeF1WaZUK9ztM1nJ9VXNu8uLHNkV1SSZFoHgQJyS7hZqkmkRCAIAACwQMoPXTnNMlylra10DTyQ5df6xfJcZLaPnLqUgGYap6MYsHfuopt9mcqrKH9mqMP4PAABg4ZAZvHbCWk9aMg1p0b7Zh9fdZUU2N69DIHhFQpIMUxaBIAAAwMIhMwgAAAAAC4jMIAAAAAAsIIJBAAAAAFhABIMAAAAAsIAIBheUUzrW4eGhjvMTWaK+ZVrlAgAAAJgsJpCZIKea191iRbXaxbbZXMTbUen4SIWaRl+SoKtplTuILsswmJaSs9f4AAAAwEwYKzPolI51eFxSc33zav6w7f4icUrH7mLnvkBwdoUUNg1JkmGuTDBgm1a5j55TOtbxYV6Tz3c6quaPdXy4uK8dAAAAPBpjZQar+UPZamZfvKzQ8iJmY5oZMUMxa0NrLHL3iHlZwglmBt0F7SeY7XQcVYt3ZVd8vx6w8DsAAACu0BiZQUdOXTKMZe9+fU6yYtPgHbsZJRDEQKrFIy8QNBSzYur/swsAAAAweSNkBruMzepmglmZ2TdoJspRNX9XxUpNzbjZMExFN9bVHkO65dVjW9pck0r5uyp4GSTDjGljfdTsUZdzd2mdBzF4uU7pWEcFKba1oVC1qGKh4raFYSq2sa610Q4sYJDz4aha8j2/17bR6NrFuajmdWj3v9KN2JY2R6l0taTjs5A21sMKNes7QGawmj+WXZFMa3MGx6ICAABgnoyRGVxwTskd53V4qMNmIFSxvfverW0MmNuV1PYFgpJUq1VkHx2r1G2wWK2q/OFRKxCUpFqloKO5n6mzpsrdI9m+QEy1igpH0xiT1101H3h+r23t4hXVILymzfVw38CvU1VnlZrbfkXGFwIAAGA8S9/97nf/IrixyTDcyUDaLWslGlU0asgpnsmwkvraRlRR8zFVy+e61by/0uw+ek199kCflM/1MLjd7wu39AerN/W4JKf0c9mVh5IRk/XcV7TxTFTRqCnDeaCzek3nnxm+NnNULZ7pvH6uugzFrOf0lY1nFDUNOeUz1es3ZERXNHwLN8/dxfmrG+YEztXg5X724BOVzx/q4UPJMC0997UNPRM1ZThlndXrumFE1eXPhuS2X686SFX96u6Z6mZMW1/7ip7x6m4aj+mzG49r5ab3N8sr3jFFZThFndVNWcmvaaN1rFGt3nw8WPgIvPr6rpfulnXDqeqs/gWZ/0dUTy333hMAAAC4zOiZQcdRXYYuhgzWVPPfv+5Ca9pMJpVMJpVMWu6YL9Py7nu3Vpc/R9VKzV1uYdPXDVEhhdc3FDMkVc66ZMVMWcnNi3GIobBWuvXcnUem5cuMhRT2DqzuXGG+q1JRtXrxfKHwmtbXZrvvZXh9U8nkptYZmwoAAIAxDR0MNhcVPzwqqKaaCkdel0i7IrXu9+j2uLCaE8x0W24hpNCyu09HHNRl//B6UslJzWj5CJkrj/IIwlq3TBmqqWAf6fDwWPlSSb64EAAAALj2hg4GgWshvK7N5Ja2rJhMo6ZKoSD76FDHcz8eEwAAABjM0MFgaG1TyWRSWzHD68bodom0TG+dtGRSyeTmhGaFvGa6dgV1l+iQlhWiza5YyO0auplUMrmlmCHVKsU+We0u2VsAAABgTg0dDDbV2xYVbAY06K451q8iO19tm2G0mr+rQs8upJgKp6R8vqRqW2QXUtg0JNVU63ItLxvuY5Wq//xdvWr+2O3W2vmrAgAAADCUEdYZdFXzh7LrzXXR3GUTCsv91nW7zgZZ167LWnxNhilr0z8OcJDyRnDJunmjr5k3eLnuOoM1mVayfZ08r4yrqIOcko6PCm3LSlwwZXUbk9mj/GnVV13XHPRdQ10fBwAAAAY3YmYwmAn0JkhBH2Gtb1mKmf7lOgwZpqWttkAQUxda04Zlqn3lFO9cdAsE5Y4x3Or4m6sW1oppSDJkRoddoxAAAABoN3JmEAAAAAAwv0bMDAIAAAAA5hmZQWBsfcaDdugxJhEAAAC4YmQGAQAAAGABkRkEAAAAgAVEZhAAAAAAFhDBIAAAAAAsIIJBAAAAAFhABIOYI45Kx4c6PDxWyQk+NhqndKzDw0Md56vBhwAAAIBrjQlkFphTzetusaJa7WKbaSW1PqvrHjglHR8VVJNkxLa0uRYK7jEkR6XjIxVqegRLPnRZjsK0lJzZxgcAAMB1M1Zm0Ckd6/C4pGaSppo/bLuP2eWUjnVktweCMy8UlmlIkiEzPG4gKEkhhd0CZZgrVxgITp9TOtbxYV4TzXc6VZXybibVvR0rP6kULQAAAK7cWJnBav5QtprZDC/Lskx2Y/Y1M2KGYtaG1iYSWGF0XpZwgpnBav5QdmWC2U5fVrbDBOsNAACAqzNGZtCRU5cMY9m7X5+vLNNC886VGSUQxGBCIS0bpmLWlpLJpJLJpLYs78eiytlkM5AAAAC4EiNkBruMdeqGbMEMGzQT5aiav6tipdbKCBmGqejGutpjSLe8emxLm2tSKX9XhYr7F4YZ08b6mkYKOat5Hdrdr7TxxjZ2uYZ7tIVTOtZRQYptbShULapYqLhtYZiKbaxr7GGL0oDnw1G15Ht+r22j0bWLc9GnvZomM9bygpuBNBTb2uzaFtX8seyKZFqbY5wvAAAATMMYmUHMFaek49ZYLy8Qqti+8V/B8Z5uV1LbFwhKUq1WkX3UYzbPWlX5w6NWIChJtUpBR3M/U2dNlbtHsn2BmGoVFY4mPCavj2o+8Pxe29rFq6rBKKo6q9Tc9isylhgAAGDWjJAZbHKzGWpmaLwxRctjZWwwNf3GfDUZMW1tulk8NyNWk4yYrI1m9snNFNqVWiCT5s+0+cYhOlXlj2xVJjhTZ7Ne42UG/fpn5VrtIMkwLW2shxWS4wZnlXEzlE3963DxeExbviyrUy2p6IS0vtb5NxMfM9iVVy/fdRN0kRnc0DpdkgEAAGbK6JlBx1Fdhi6GDNZU89/HbAmtadMb65VMWjLldY1sbUsq2fpC76haqbnLLWz6uiEqpPD6hmJGr3Fipqzk5sU4xFBYK/1+T5gnpqXN9bDXPiGFvQOrO1eY76pUVK1ePF8ovNY1ELwq1bytigzFNroHgpIUXt9UMrlJIAgAADCDhg4Gm4t0Hx4VVFNNhSOvi6FdkVr3e3QjxJxoTjDTbbmFkELL7j4dcVCX/cPrSSWnmp26GubKozyCsNYtU4ZqKthH3pIOJfniwivnHwvYbawgAAAAZt/QwSCARyC8rs3klrasmEyjpkqhIPvoUMdXPh7T8bqg1mRaWxPoIgsAAIBHZehgMLS26U4rHzO8boFuF0PL9MacJZNKJskWXAtdu4K6S4pIywpxjq9YyO0auplUMrmlmCHVKsU+Wfgu2duxNCcVao6V5AIAAACYZ0MHg031tkUFmwECrofmWL+K7Hy1bYbRav6uCj27kGIqnJLy+ZKqbZFdSGHTkFRTrctrb9lwH6tU/edvHG4gWKgZQ02aU80fu91aO39VAAAAwCM28myi1fyh7HpzFkHvi+Jyr9kQMVsum71SgRlCAwxT1qZ/HOAg5U3GRGYTvWQ9Pv9afD2fzytj5HX7hqhD/5lge8wY2qP8Uevrn1W1q64zivquoa6PAwAA4FEaMTMYzAR6E47gGglrfctSzDR82wwZpqWttkAQUxda04ZlyvCfiua56BYIyh1juNXxN1ctrBXTkGTIjDZnYgUAAMCsGDkzCDwKboZKim0xLhUAAAAYx4iZQWDaHJXy+fZxck5VxUKNyWsAAACACSAziBnVnLAkuH30cW9o6jMetEOPMYkAAACYe2QGMaNCWtuwZPoHvRmGTItAEAAAAJgEMoMAAAAAsIDIDAIAAADAAiIYBAAAAIAFRDAIAAAAAAuIYBBzwSkd6/DwUMf5avChKzMLdZguR6XjQx0eHqvkW9EDAAAA1xPBIOaAo2rFXWOiVjnTIKGYU83r+PhQh4cXt/FiuOHrMHecqtxDrKlSJRoEAAC47sYKBp3SsQ6PS2p+bazmD9vuA5MRUth0l5gwzJVL17xzSsc6siuqdVmjcHTD1WEuhcJyD9GQGWb5DgAAgOturKUlqvlD2bKUXA9fLBK+3LwPPArNxeoNxawNrRHUAAAAAF2NkRl05NQlw1j27tcnnIkBRuFdh2aUQBAAAADoY4TMYFX5Q1uV4OYgkwwhxtXlWrv0uvL+5tL9BjVKHeZENa9Du/sr2bSS6nWI1fyx7IpkWps99wEAAMDsGyMzCMwIp6Tj1kQxXuBWsdsmj2Es66RUdVapuZPMFGlTAACAeTZCZrDJzZiomUFwSjo+Kmi5T0YBGF2fjJ937fXtpWzEtLW5pvE6jvapw5Cq+UP1SMq5fPUdZt9xOaVjHRVqA2YGN7ROV1wAAIC5NXpm0HFUl6GLIYM11fz3gasSWtNmMqlkMqlk0pIprytna1tSyQkFS5DC65tKJjcJBAEAAObc0JnBZuagP0OxrU2t8V0REzNoVm7Q/UYxzbJnwyCZQQAAAFwPo2cGAQAAAABza+jMYJObQViWlVxXuDmuqT65sUtAu0GzcoPuN4rJlT3MOMBh9h0XmUEAAIDFMXJmsN62qKC75iCA66+aP9bh4bHy1eAjAAAAmCcjZwbbM4GOSsdHKiyPnzEBWvqsgydJRmxLmx0DUyeXvZNGrcP8ujwz6Ft3cYIZSQAAAFy9ETODwUxgXW2JQgDXVFgrpiHJkBkNEwgCAADMsZEzgwCuHzczKGYDBgAAWAAjZgYBzDdHpXxeVcfxbaqqWKhJWlaIQBAAAODaIzMILCRvnG+X7t3XbRwkAAAAuiMzCCykkNY2LJmGcbHJMGRaBIIAAACLgswgAAAAACwgMoMAAAAAsIAIBgEAAABgAREMAgAAAMACIhgEAAAAgAVEMAgAAAAAC2is2USd0rGOKqa2NtcUklTNH8qux1r3AUyOUzrW3cKyosl1hYMPziOnpOOjgrosdehjKLa1KVa7AAAAmLyxMoP1Wk1aDnmBnyOnLt99AJNUr9UuCZwAAACAwY0RDLrBn2Ese/frqvFNFcCgQmvaTCaVbN4styeCafm2JckKAgAATMsI3USryh/aqgQ3B5mWkuvXojMbMCD3tVGPbWlzTSrl76pQcX8hMcyYNtaD3acdVUtFFQsVL+NnyDCj2lgPX+xXzevQ7v9qM2Jb2vQiJqd0rKNCTaaVVNvLzyvHv+8w9XXLlWJbGwpVfXU2TMU21icTsHl17Kh7y7D1HbQdNNi5AAAAuGbGyAwC6KpWVf7wqBWoSFKtUtBRvtq2WzV/JLsVfEhSTbWKraPjkpy2PadswPpKNVXuBupcq6hwlFdwz6kauL6Dm5lzAQAAcIWWvvvd7/5FcGOTYRjBTZKWtRKNKho15BTPZFhJfW0jqqj5mKrlc91q3l9pdh8FFoWjavFM5/Vz1WUoZj2nr2w8o6hpyCmfqV6/ISO6omW5Gaq//+e6ZFra+tqGnolGFY2aMpwHOjuv6DMjqpVlScsrikajikajMpyizuqmrOTXtOFti0ajWr35eKsGnz34ROXzhzJM7+9bVauqeFbXF279gW//wevbLPfhQ8kwLT33tQ09EzVlOGWd1eu60azvOLw6dtS9Zfj6dpTVrR0GPRcAAADXzOiZQcdRXYYuhgzWVPPfBxaWKSu5qbWw18EwFNZKoMd19azi7tfWDTGk8HpUpqTK2ehZruFdXt8W09Jmq84hhb0d685V5s+GqO8AZutcAAAAXJ2hg0GndKzDw0MdHhVUU02Fo0P3vl2RWvePVbrK74bALDFXOpZ+CK8nlWwtCeHNvKuK7EPv9dO6eeNx687VdU+8tL4XzJXglkdgiPpebsbOBQAAwBUaOhgEAAAAAMy/oYPB0NqmksmktmKG113LnQLeMiUZMW0xHTxwiZBCy/7XS5fbZnDm0aa6RumRWT2rBzctpM52GOdcAAAAzLehg8Gmetuigs2uVgAGsWwYUq2gu/nqwMHdsmG4M3pWqz27LYZC7qDdyllzFkxH1fyxbN/Mm4tgmHYY5VwAAABcByMHg5Ikw3BnRmxaDvELOjCA0NqGYobc5Qua4259t26rJDQDnFrB1pFv32P/AN3wikxJqhS8fY7cAKjrzMDX2BDtMMq5AAAAuA5GDAaDmcC62hKFAC4R0trmlizTUGd40kN4XVuW2S2e8QlrfSsms7WPITNmaWvTnRlzcQzTDiOcCwAAgGvgxr179z4Pbmwyzc6vTQAAAACA+TdiZhAAAAAAMM8IBgEAAABgAREMAgAAAMACIhgEAAAAgAVEMAgAAAAAC4hgEAAAAAAWEMEgAAAAACwggkEAAAAAWEAsOo9roqr8oa2Kf5NpKbke9m8BAAAA4BkrGHRKxzqqmNraXFNIUjV/KLsea93HeJzSse4WlhVNruv6hDRdgrYWQ7GtTa2NdPF0KZdgEAAAAOhprG6i9VpNWg55gZ8jpy7ffYyrXqupFtyIHsJaTyaVTCaVTFrq/zMGAAAAgDGCQTf4M4xl735dNSIXDMq0vMDNfxs1KwgAAABgWCN0E+3SHa+bheii57ZFPbalzTWplL+rQsWNiA0zpo31YHdZR9VSUcVCxcv4GTLMqDbWwxf7VfM6tPu3rhHb0qYXNTmlYx0VajKtpNqa2yvHv+8w9XXLlWJbGwpVfXU2TMU21scI2rzrZ9Drw6mqVCyqUrnIkhqGqejGusI96zDIcwTPhdsG0ehal3KD+3Y5bwAAAMCcGSMziJZaVfnDo1ZgJUm1SkFH+WrbbtX8kWxf8CHVVKvYOjouyWnbc8oGrK9UU+VuoM61igpHeQX3nA5Hpbu2Cr5AUJJqtYrsMevQeS7cNrCLnaV27vuIzhsAAAAwQSNkBpvc7IuaGSmnpOOjgpaDGaprzZ8lNRSzNrQWDklOVfkjWxWZspqTvzQzfqalrVZGyVE1f1d2pUtmrzkhT8VXRhejZAYHqW+zXEkyTMvLgjluYFRR5/MNrE9m2QhOPuSolC9KK1G3nt62y+twWWaw+XhMW/5saLWkohPS+prvb0Y4bwAAAMA8GD0z6Diqy9DFkMGaav77C8WUldy8CFhCYa0E4ujqWcXdr61rYUjh9ahMSZWzzozU9Fxe3xbT0marziGFvR3rzlXkxEJaW1/3BYLutmYdxlapqFq9OI5QeK09EJy58wYAAABMztCZQX/GqLdxlgiYJ5dloJoclY6P1LfZOrJiU8wMXlrfYcsdxuB1kORmLe8WVekyO1FH3VoGeI5qXsf2xRhAM2ZqJRwcLzjaeQMAAADmweiZQWDanJKOj+yugeDYwuvaTG5py4rJNGqqFAqyjw513DFuEgAAALiehg4GQ2ubSiaT2ooZXndDd1kAy/SyJCwR0EVIoWV/+3S59cwu1TVKj8zqWT24ae5UiwXVJBkxq73drM6M9WhCbtfQzaSSyS3FDKlWKarUau9xzhsAAAAw24YOBpvqbdkab8F59LRsGFKtoLv56sDB3bJhuDN6Vqs9Z60MhdxBmpWz5syWjqr5Y9m+mULn3XJouW2Sl3yx6/Qzg3NKyudLqradiJDCptveNd+1PMp5AwAAAObB0GMGm6r5Q9n15ngpb2zVcp8xWtfSAGPTWvqPP+s6/q3HmoNdxwEG9pFhSLVa930HqO8sjBm8bHxqW916tFVTW329mW+7lxwcoznCeQMAAADmwIiZwWAmsK5pDOu6XkJa29ySZRoygg/1El7XlmXK6PsHYa1vxWS29jFkxixtbbqzXc6z0NqmtmKmr70MGaalLSs2eBt2E1rTRke7emV3TNYzwnkDAAAA5sDImUEAAAAAwPwaMTMIAAAAAJhnBIMAAAAAsIAIBgEAAABgAREMAgAAAMACIhgEAAAAgAVEMAgAAAAAC4hgEAAAAAAWEMEgAAAAACwggkEAAAAAWEAEgwAAAACwgAgGAQAAAGABEQwCAAAAwAIiGAQAAACABUQwCAAAAAALiGAQAAAAABYQwSAAAAAALCCCQQAAAABYQASDAAAAALCACAYBAAAAYAERDAIAAADAAiIYBAAAAIAFRDAIAAAAAAuIYBAAAAAAFhDBIAAAAAAsIIJBAAAAAFhABIMAAAAAsIAIBgEAAABgAREMAgAAAMACIhgEAAAAgAVEMAgAAAAAC4hgEAAAAAAW0IjBYE7ppSUt+W/pXHAnjKm8H29v46W49svBvYAxlPcV57UMAACwkEYMBqervB9XfCmtyX8lLSuXjrtffuP7ul5xVVm/fSuun/3Jkn765/v6XfDhUZzldPpWXD/9kyXvFtcv/nb8Vvvd3X394s+bZS7pp38e1y/+NjeZOnt+97cX9f7F3eCjo3Hr7W+PtH4b3GkEkyu3rFN/u3a7TeraAAAAwNwbMRjc1kGjoUajoUYjq1Tw4TF9XLRlBzeOo+wGgUtLESUyEy576lLKttr6RDurgYfP3CDwp38S0T99aMsJPDyys339LJXQrz/0t5at+38T0U/fGidMz+nXP9jV/U98mz6xdf9vEvqHscr1OdvXP/3NJM+yG2T9ww92df+TeSh3CKs7OpniaxkAAACza8RgcL7k3nKDQMnSXnbvWn3h/e2P3SBQsvSl7+/pieAOo1qJKPRUSl/6/qm+/ncNff3vGvrq972W+/D9ETNXrtDze/pyxi3z63/X0Nczewpp/HJdZZ3+x105SulLf2YFHxzJb9+K6NefNOt90R5f/7sD/X5w5yFMvtxVRf7a167+m3fuQs8l9MXgnwEAAGAhXVEwWFZuP902Nime3lfO3+Mwl249lshIUkaJwFim+IgD5rZf2JOVyuq0caKd7Ujw4bn2+/9uT6Hns/rq350osjHJY9vWH//1gSIbF6nIL24c6MvPS1JBzpl/32FsK/Lqjn5/xbdpZUdfet53fwy/+9uX9OtPpCe+fzCZwPhsX7/+UNLzWT336o5+fyWYmh3RtMrtqqzT/5yRlNKX/nSazwMAAIB5ciXBYC4dUWI309Y9087sKjGpboGX2d7RycG2ruXX4I0dPffq9lxne353N61ffyiF/uzVETNiHq97aOjPTvXHG8EHR/M7+44cWfrSt7aDD41lWuV2dfctNwM5bvsCAADgWrmCYDCn9zOSUns6bY1Naug0u6dU1Lfb9kHrsWxKgbFy7u2kY8Dco5VLB2ZhDN6u3SQ1Od3/UNJTt/WEP7M3tPaJTv7hBxmF/uxUz42VtfK6hz61py+PVU47554tKSadpfWztklv0jq9O/rZnVa5ncgKAgAAoLsrCAY9mTvK+vqFrm7v6GDnCrIimJjfvpXQfVn60v+9M/FM5P2/iehnY8xU6nYPnXTdynLuSVJGv/5BRk7bpDcZ/foHkRFnKp1WuV2QFQQAAEAPVxAMbusgm5IlW7uJiJaW4krvB8YLzqntg/bMZcftZOfadE397Vtx/dOH0hPfP1FkrKygOiY6+er33QlknL8ZMQhqdQ99dwJ16y70fFZfbU16c6ove5PT3P9/x+vqPK1yXWQFAQAA0NsVBINuF9CTxqnbNdSyldndVSKypDiLW8+Bsn771pL+6UNbT3x/cmPx/L64saPnvBlFncrwvxK44+/cYNK/pt4/eMtL3P+Be3/kzONTe/ryq9v6YivQXNXv/+m7+tJTku6djr5u37TKbfKygnr+BbKCAAAA6HA1waAkadXtGnrSUKNxqj1LsjNvqvcEoQWd9nxsNlz/MYNlnf55xMsINvTHvplFF8OqQv9K0id3dH/k2VO7mVa5fs2s4BVNUgMAAIC5M/1gsLyvdHpfubI/LFpV4rYlyVbxY99mz9NR97E72dycB1OzK5eOu8t19MzOuoHgrz+xvEAw+Hh3l5fb6XdnOf3iP+7KkaUnrO4BZ79yv/inJ53r6v1dQ1/1ulw+8X33frcJavqVK0m//+9Skmz9+j/u+zJ1Zf32LXcJi17r9j2qcltaWcHvTa3rLAAAAObbjXv37n0e3NhkmmZwkyuX1pK7GGBX1t7pxcyf5X3FI7tty0pcSCnbOFBH3qJH+W3lDqNHeS3Wnk5ncHxfeT+uyG6sexs13U3rpz/oc2xP7emrfx2cVCWn9FJC7l9Z2js9UbBZf/e38VY3y65GLLdffXvPKDpAuV00j6F3MDtIuc2gOLhd0lMpffmvuy0Q/yjLVVsg/6XMMGM8vfJTWTUOel5xAAAAuCamnxlc3dG72ZQsN0njsbxF4HsEOdsHOu34G0yOO6nP5I1SrqXQ83v6cqZ75s41SrmDGKTcVUX++lRfft5/MVruxC9dAzY94nLJCgIAAGAwo2UGcSUGygyOqJxL66VERnav7OyIKNc1b+W6yAwCAAAskulnBjFTmpPeRBIZ2ZJS2ckEFJTrmrdyAQAAsLjmMBjMKR2ctbPnLa1LptmYAxklWscT7zP76nAsK6XsaUOTTgBRrmtuyi3vK966vprjEQEAALAI5rCbqH8SjctMoyvd1XG7ifoncek3aQgwgm4TPNFNFAAAYCHMYTAIAAAAABjXHHYTBQAAAACMi2AQAAAAABYQwSAAAAAALCCCQQAAAABYQCMGg12Wd0jP/yIOs6a8Hw8slTG5pSUAKbi0BK9lAACARTJiMDhd5f244pNeI7Cc037aH1zFlb4WkVVOv/iTJf202+3P9/W74O4j+N3dff3iz+O+stP6bXCngZR1+udd6jmpOp/ldPpWXD9rKy+t07vjnueyTt/yH39cv/jb3Oj1DJib9gUAAMC1MmIwuK2DRkONRkONRlap4MNj+rhot697Nq7yvuKRhHYz/lJtZXYjc5AFSSnbauurXmPQDS7+4Qe7uv/JRM/IFOT0i1RCv/7QluPf/ElGv/5BRL+46984jJx+8ScR/frD9mvn/t8k9A9vjXvtzED7ru7oZIqvZQAAAMyuEYPBObMaUcxKaS976n3pbeg0633tzbw/2QzkIxL6s1N9/e8a7be/3tEXgzsO4bdvRfTrT6TQ83v6csZf/oF+P7jzQFYV+etAHZu377vnI/RcYqQ6/+5v39R9SaE/y+qrvnK/6pV7//8d7Sz/9q1EZ7mZrL70lKQP39TpWfAvBjdP7QsAAIDr54qCwbJy++m2sUnx9L5y/t57uXTrsURGkjJKBMYyxUfu1rmtg5MD7WxfpNVWtw/kxoMFnY5a7HV2tq9ffyjp+ayee3VHv78yzZRkWaf/OSMppS/96XjPEzK324KdL268oCd894eT0/0PJT21py//qa/clW1F/u89hWTrvj3ixTOn7QsAAIDr40qCwVw6osRupq3rp53ZVWLsbnaYlt/Zd+TI0pe+tR18aPLuvuVmyP7s1REzYtIXrdsKSbr/g4vxfL87y+kXf57Q/XGP419FOrNpKxGFJDn3Pg4+MpB5a18AAABcP1cQDOb0fkZSak+nrbFJDZ1m95SK+nbbPmg95mbs/GPl3NvJRAfMefWybisxYrG5dGAWxuAtvq8R80ZDc/4m4pskZPwJTpx7tqSYdJbWz/yTkkxkQha/CWWtVnb0XGZPTzzljef7kyX9Qyqh+0rpy5kTRVaCfzCIpxV6StKHCf3Cf8xnOZ2+5XZL1b3Tkdp57toXAAAA184VBIOezB1lff1CV7d3dLBzBVmRHnLphDKytPfujq7dV+RPvIBo5Jkjy3LuSVJGv/5BRs4nvofGnpAlYJJZq5WEQv/Kat/2SUHO2ajB1aoi/19vzOEPfMG2N1HN6Oa0fQEAAHCtXEEwuK2DbEqWbO0mIt6SDoHxglcsl44rkZFS2fFm59w+aM9cdtxOriLQ3NYfByYL+Wpmzx0n98mu/ulvx2vo0PNZfTXTLPtUX/4zN9gadUKWdpPMWl3M+ulO9nKqLz9vSbLHC642DvTV76fcDGHTUyl96fteG3frQjqE+WlfAAAAXDdXEAy6XUBPGqdu11DLVmZ3V4nIkuJXvqxDWbn0khIZW6nsqQ4eXWJyqr64sqM/9maPHMtTe/ryq9v6YquL5ap+/0/fdWfSHLF7ZBsva6XnXxg7a3Ux6+epnvvTbX1Rq/r9V08uZhP9z6NmSaUvbhzoOf8snX99oMiK5EgK/aung7sPbo7aFwAAANfP1QSDkqRVt2voSUONxqn2LMnOvKneE4ROepbPsvbjES8j2NCBb2bRUc3SmMGg31UKwU1DWFXoX0n65I7uj7F0Qn/NrNUkJlFpdru09ITVfl5bs4l+Umxff3BMv/3xrpwuzzeYeWtfAAAAXEfTDwbL+0qn95Ur+8OiVSVuu134il0mY3w66j52J5ubUDDlBoK7tuUFgsHHr5Oyfnc3rX/6G7trcNSUS8fd5Tp6ZGd//9+l3C6W/9GfUSvrt2+95I5B67Fe3WXltrSyVt8baHKX/uV6wZVs3bfbJ8753d333Ylenooq5Nve1L/coLI3Q+mS/unD/nW/rNxZa18AAAAsnhv37t37PLixyTTN4CZXLq0ldzHArqy904uZP8v7ikd225aVuJBStnGgjtisR/lt5Q6hvB9XZLd7DSRJ1p5Or2R833Dcese6t1HT3bR++oPOtpIsPfH9E/3xRnC7JOWUXkrI/StLe6fdxk6Wdfrn7qLoHZ5K6ct/3W1h9EHKla9sS18aaKbPAcrt2Q6uJ77f6NIWA5R7tq+fpXY7s4pP7emrf73TNWAbqNyZat8mr/xUVo3r/YsJAAAAriQzuLqjd7MpWW2TPFqyUlmd9gpytg902vE3GIyl0PN7+nKmVyCo1qQ+/a0q8tfNSViaLHfCk66BigYsd5Ss1QDlbhzo65msnniq/aIJPZXSlzPdAkENVm4byyvvVF/vGQhqwHJnqX0BAACwiEbLDOJKDJQZHFE5l9ZLiYzsXtnZEVGua97KdZEZBAAAWCTTzwxipjQnvYkkMrIlpbKTCSgo1zVv5QIAAGBxzWEwmFM6OGtnz1tal0yzMQcySrSOJ95n9tXhWFZK2dPJT6ZDua65Kbe8r3jr+mqORwQAAMAimMNuov5JNC4zja50V6dz4pt+k4YAI+g2wRPdRAEAABbCHAaDAAAAAIBxzWE3UQCLpNntGwAAAJNFMAgAAAAAC4hgEAAAAAAWEMEgpqN8Q+n4jWswmyuuwn78sYnNlAsAAIDBLEgw2GU5ivR1CVNm8dhuKB25oYx9Q4n0jcBjs1jfWXe926y8/5h2bWk3QkAIAABwlRYkGBxeeT+u+LVYp3A8o7TDfvyGu/SH9blOD3pOVjsVo9R3MGXl0nF3Tb74vq5TzDKVNivntJ+O+wLYuNI9Ir3Vnf+lbMr9/26EbDIAAMBVWZBgcFsHjYYajYYajay87519fVy029dem1nDH9swhm2HZpZH+lzZk8/VuSTibNX3UmU3CFxaiiiRmXDZA5u3NttXPJLQbsZfqq3MbqRnRnP74H9pz5KkbtlkAAAATMOCBIO4EuUbemnX/W8q+7muw7LlubfcIFCytJfdm3ggdi2tRhSzUtrLnnoBbEOnzdRf5v2emb+d73lZ5MwN9YgZAQAAMEEjBoPuGKb4fllSua07WDzdrQtdWbn9tNvFzusyFk/nuuynLvu6ZeYCO5f33efs+NKYS7t/06NLWl/e3y4tLSmRkaSMEoGxWiOVO1MGaN8R26GcveFmmKzP9erEIsHp1XcQ2y/syUplddo40c52JPjwjHq0bSZt6+DkQDvbF3nh1e0DrytoQae9it3+3MsOSpn3yQ4CAABM24jBoKeYVXop0tYdzM7sKhKI0HLpiBK7GV9XNFt2JqFIl7FXnfu6ZSbeCkZ9GMU02zd7x/3Xut2te+hoplnfgWzv6ORge2LHcxUeeZuN4SI7qJ4ZRAAAAEzGWMGgndlVRtZFd7BTbzyTvytYLu1mHlJZnbbGPZ0qm7Ike1ft309zej8jKbXn27eh0+yeUlH/flOyfdB6TjeLkVLWV49Go6GTndHCgly6PevScesSGE/egO07SjuUb+iOF33cTrQ/NLop1vfamtU28+pl3VaiX7FPS25y8EbvDCIAAAAmYqxg0P0CeXLRHWx1Wy8EBlXl3G+myrZlV1a1ffA9pSRl3u/y+3/mjrK+Pm2r2zs62JlYv0NMo30/1mQnIfGbRn2vuxlrs1w64f5w9O5O/yzrqhTz/lv8OPAYAAAAJmq8YDD1QsckIdsHDTUaB972sk4L6joeaWkp4S4/UDj1ZcS2dZBNyZKt3UTEm46+c7zgPHLbpc/t5JIvyRNxFe37uSITO5CrqO91M3ttlkvHlchIqeyJJppsBAAAwFjGCwanYftAJ41Tt1ubZSuzu6tEZEnxjpliMJKpt++Eu/dNvb7X0My0WVm59JISGVup7KkOgr8cAQAA4JGacjC4qkhMktU+funyjNiq263tpKFG41R7lmRn3tQgkxvm3i8EN42hz8yHQ5qNMYNNw7bvAO3QGus1je59U6jvtfeo26ys/XjEywg2dOCbWbSvstR8BUefDjwGAACAiZpyMCg9HXUninkpnVP5si+b5X2l0/vKte24qsRtS5LdFmSsRtyRRZn3m0GUuzi4uybc+J6Ous95J9trCYw5NET7Ng3cDr6xXoXTwGOjmmZ9p8xdqP4RZONmos3cQHDXtrxAMPh4H62xp5PsbgwAAIBuph4Mru6862UlEopEOjNiwe/KhcyuEpFI2z6RXVtSSi/4v1Ruv+DNXLqryNKSlpa8xcGtZn7Kx7emWmusYibR2tZtPbVmsGnvJrzye+87iKmNGRzy2AZuX8/g7fB5a/Ig+86N3kHFzNR3QN3qazevuV4Z3Zze936U6J+NG1C3Osxwm5X3X9KuLUm2MomL8lq3rm3myjXXF0ypYzwyAAAAJmvqwaC0qp0TdymJLmFau9UdvZtNBeI5y1v0uzkpTdO2Dk73lGrtaym1l9XpiTtL6di2D3TaUZc5N1T7eoZoh+1XP3fPsX0jsGTIiKZc3+lxJ3F5JOa2zdzlSd7MuP/de9VbbxAAAABTc+PevXs9v3WZphncBPSVSz/mriupz5VtfN49+FgA5VxaLyUyspVStlcQhjb78cfcjGLqczUOLt6WlpaWJEmNRsO3NwAAAMZ1BZlBLJLtg8+9zOwNJeJ9uoteU82JgiKJjGxJqSyB4CByaS8Q1OfK+gJBAAAATA/BICbscx2cXnQXjaS9MWAzIad0cPxaz1ta4/R0tayUsqdDTp4yk6bfZuX9ZjZZ2jtd3GwyAADAVSMYxOStfq6T08+VshYvy9OcKOjk5ECDrqaw6FZ3/pf2LGnv9H+xKD0AAMAVYswggJm2xJhBAACAqSAzCGCmNZdfAQAAwGQRDAIAAADAAiIYBAAAAIAFNLPB4IP91/TG0jd1kP4o+NAjkFM6PtpMiYuDNgIAAADmyYwGg/dVuvOpJOk8k1cp+PCVKms/nlDGluZ/0bwuywSkJxS+lSXZGSVGXF4AAAAAwNWa0WDwCa3dflKSdCu1rrXgwyN6sP+aDpbeGSq4zKUj2rUt7Z0u5lIB5f244oMEeKvbOjjdk6WMEpMKMAEAAABMzYwGg9LNnb/U6433lD54NvjQyB4UP9V5cGM/ubQSGcnae/earH+2rQNvZsZGI6tU8OEuPi7asoMbe1nd0bt7lpRJiHgQAAAAmG0zGww+emXtv5mRrD29ez0iwSuxuvM9pSRl3tyf/161AAAAwDU2UjDoTu7ymk7K0oP9d3Sw9E29sfRNvRF/RycdEcBH+snSN3Wwf1/SfZ2k3Ylh3MlhPtCDLvs2H39j6Zt6o8cEMhd1uK9Svzrk3mmVdScjSSe6E3gOt24Bube0a0vW7YR6h4LuGLz4ftkNHtPx1li8eLpbMFRWbj+teGvMXlzxdK7Lfuqyr1tmLrBzed99zo5MXC7t/s1+99L78v52aWlJiYwkZZQIjDXsXe62Xt2zJHtXbwXrBAAAAGBmjBQMNhVe+qZ+tHty0fXSPtGHETdI7FD8SD9ZelkfZtyJYSTpPPNj/ahHsDeYT1V46WXd6ajDcOMCu8m9n5Fk6XaidyjYUswqvRTRbuaiQ6Wd2VUkEKHl0hEldjO+bpe27ExCkXhn4Ni5r1tmYg4irNXEbVmSMu/Pfl0BAACARTVGMPipzm3pVuoVfbvxnl5vvK3be0+6AVq2M9N2nvmxCnpSz2ff1uuN9/T66SuKSVLbbKHP6sXGe+7jDe/xS3TUISVJJyo245Dt73jlvec9Ftft1nO4t/TOE21lSmWdFiRZtzVILGhndpWRpb3sqTse79Qbj5d5/2LiFW/8oVJZnbbG7Z0qm+qWRcvp/Yyk1J5v34ZOs3tKRf37Tcn2Qes5sylJSinrq0ej0dBJv66zqwndtiQVTjuCXAAAAACzYYxgULq197bSB8/qpuTOALqTVEzS+Z2PAt0/5QVhf6n4thd4rT6r6CAzmFwm9Up7HV6IS5LOTzsD0sF9rKItKRbp00XUL6Vs40Q7zelGV7f1QuDY3ExjStmDbV+Zq9o+8MbYdcuiZe4o6+sXurq9o4Od7bZdZtOqIjFJdlEfBx8CAAAAMBPGCwYjwYxaWLeswKamLktErB28p9cb3+nYPozYC5ObbXRkqRcUDNG2DxpqNA687V6mscvYu6WlhDIKZtG2dZBNyZKt3URES0txpfc7xwsCAAAAwKjGCgYxRdsHOmmcul1DLVuZ3V0lIkuKd8wUAwAAAADDm2wwWP5IBVtS7Amv2+YsqujBpRm2pxWd6Jg3r9uk1T4GsO12stOlS+qq2zX0xB1fuGdJduZN9ZzI0yf3fiG4aQwFnQ7wnBeaYy6jejr4EAAAAICZMGYw6BuXV/5IP3npxzqfla6bXdyMNie46Tam0a855u2OskMFQb09HXUninkpnVP5sjLL+0qn95Vr23FViduWJFtF30C81Yg7zU7m/eaMpGXl0nElfDObjuPpqPucd7K9lsDoopzVnaHGXAIAAAC4amMFg4XEyxfr9UV+6GYFU6/oxeAAukH51gR8Y+mHcofZ/bD/eoBDuBkxJUnnuz/Ujy5ZZ3D7hZQXBA0cAvW1uvOul9lLKBIJjhvsXCewkNlVIhJp2yeya0tK6QV/+26/4M1cuqvI0pKWliJuIGh1GbzpWz+wNVYxk+i7dmAz2LR3E175vfdtKmfvyJaUaqsoAAAAgFkyVjDYxnpSsb1X9O2D2cwKSu4yE9/OxntPcuO3/aobvO2+dbE8xFhWtXPiLiVx6dOv7ujdbCoQz1myUlmdtialadrWwemeUq19LaX2sjo9cWcpHdv2gU476tJPWdk7tmTt6VViQQAAAGBm3bh3797nwY1Npulm0oIe7L+mH+1+qlj2vdGzgPMgl9ZSIiNr77T/unpoKe/HFdm1lco2dHCdrw0AAABgzk0uM3gdbR8om5Ls3ZcGmrRl4ZX39dKuLaWyBIIAAADAjCMYvMT2QVYp2dqNpFnnr59yTunIrmxrT6dEggAAAMDMIxi81LYOGll3TB49RXtblWSllO26RAYAAACAWTPSmEEAAAAAwHwjMwgAAAAAC4hgEAAAAAAWEMEgAAAAACwggkEAAAAAWEAEgwAAAACwgAgGAQAAAGABEQwCAAAAwAIiGAQAAACABUQwCAAAAAALiGAQAAAAABYQwSAAAAAALCCCQQAAAABYQASDAAAAALCACAYBAAAAYAERDAIAAADAAiIYBAAAAIAFRDAIAAAAAAuIYBAAAAAAFhDBIAAAAAAsIIJBAAAAAFhABIMAAAAAsIAIBgEAAABgAREMAgAAAMACIhgEAAAAgAVEMAgAAAAAC+j/D0D+lFDPyHcXAAAAAElFTkSuQmCC;" vertex="1" parent="1">
          <mxGeometry x="320" y="2640" width="899" height="557" as="geometry" />
        </mxCell>
      </root>
    </mxGraphModel>
  </diagram>
</mxfile>
